<svg width="56" height="62" fill="none" xmlns="http://www.w3.org/2000/svg"><g clip-path="url(#clip0)" fill="#FFBD00"><path d="M55.081 40.354a4.406 4.406 0 00-1.878-1.443 4.396 4.396 0 00-3.896.28l-7.835 4.573a8.197 8.197 0 01-.388 2.011 8.186 8.186 0 01-3.88 4.6 8.033 8.033 0 01-5.942.664l-7.739-2.098a1.79 1.79 0 01-1.05-.849 1.825 1.825 0 01-.168-1.35c.12-.456.412-.845.812-1.086.4-.24.877-.313 1.33-.203l7.858 2.129a4.417 4.417 0 003.386-.45 4.508 4.508 0 002.08-2.742 4.56 4.56 0 00-.446-3.425 4.47 4.47 0 00-2.71-2.104l-11.992-3.248a8.768 8.768 0 00-6.773.9L.892 45.253a1.79 1.79 0 00-.832 1.096 1.826 1.826 0 00.179 1.37l7.428 13.013a1.799 1.799 0 001.084.841 1.766 1.766 0 001.354-.18l6.746-3.94 14.43.946a8.814 8.814 0 005.038-1.191L53.77 47.014a4.487 4.487 0 001.396-1.28 4.573 4.573 0 00-.085-5.38zM16.1 28.893h23.8c.473 0 .927-.19 1.262-.529.335-.339.523-.798.523-1.277 0-2.278-.557-4.52-1.619-6.527a13.785 13.785 0 00-4.47-4.984A10.924 10.924 0 0128 18.658c-2.83 0-5.55-1.104-7.595-3.082a13.785 13.785 0 00-4.471 4.983 13.97 13.97 0 00-1.62 6.528c0 .479.189.938.524 1.277.335.339.789.53 1.262.53zM28 15.047c4.107 0 7.436-3.368 7.436-7.523C35.436 3.369 32.106 0 28 0s-7.436 3.369-7.436 7.524c0 4.155 3.33 7.523 7.436 7.523z"/></g><defs><clipPath id="clip0"><path fill="#fff" d="M0 0h56v61.639H0z"/></clipPath></defs></svg>