<svg width="58" height="58" fill="none" xmlns="http://www.w3.org/2000/svg"><g clip-path="url(#clip0)"><path d="M53.628 25.977L49.561 12.42a7.207 7.207 0 00-6.949-5.169h-2.737V3.625A3.625 3.625 0 0036.25 0h-14.5a3.625 3.625 0 00-3.625 3.625V7.25h-2.74a7.207 7.207 0 00-6.949 5.169L4.372 25.977A7.254 7.254 0 000 32.625v14.5a3.625 3.625 0 003.625 3.626v3.625a3.626 3.626 0 003.625 3.625h3.626a3.625 3.625 0 003.625-3.625v-3.625h29v3.625a3.627 3.627 0 003.625 3.625h3.625a3.625 3.625 0 003.625-3.625v-3.625a3.625 3.625 0 003.625-3.625V32.625a7.254 7.254 0 00-4.372-6.648zM15.385 14.5h27.23l3.263 10.874H12.123L15.385 14.5zM14.5 41.694a3.625 3.625 0 110-7.25 3.625 3.625 0 010 7.25zm29 0a3.625 3.625 0 110-7.25 3.625 3.625 0 010 7.25z" fill="#FFBD00"/></g><defs><clipPath id="clip0"><path fill="#fff" d="M0 0h58v58H0z"/></clipPath></defs></svg>