<svg width="55" height="57" fill="none" xmlns="http://www.w3.org/2000/svg"><g clip-path="url(#clip0)" fill="#FFBD00"><path d="M17.528 21.462V56.32H54.07V6.882H23.7a12.622 12.622 0 01-.527 8.347 12.823 12.823 0 01-5.645 6.233zm17.884 5.062c-1.721-.409-4.596-1.091-4.596-4.877a4.872 4.872 0 01.92-2.83 4.97 4.97 0 012.402-1.79v-1.942h3.322v1.944a4.97 4.97 0 012.403 1.789 4.87 4.87 0 01.919 2.83H37.46a1.63 1.63 0 00-.486-1.16 1.671 1.671 0 00-2.349 0 1.63 1.63 0 00-.487 1.16c0 1.077.215 1.25 2.044 1.685 1.721.41 4.596 1.092 4.596 4.877a4.874 4.874 0 01-.92 2.83 4.97 4.97 0 01-2.402 1.79v1.942h-3.322V32.83a4.97 4.97 0 01-2.403-1.79 4.873 4.873 0 01-.919-2.83h3.322a1.624 1.624 0 00.486 1.16 1.662 1.662 0 001.175.48 1.68 1.68 0 001.174-.48 1.638 1.638 0 00.487-1.16c.004-1.076-.207-1.246-2.044-1.685zm-4.596 13.281h16.61v3.281h-16.61v-3.28zm0 6.562h16.61v3.281h-16.61v-3.28zm-6.643-6.562h3.322v3.281h-3.322v-3.28zm0 6.562h3.322v3.281h-3.322v-3.28zm-13.289-26.36c1.971 0 3.899-.578 5.538-1.66a9.87 9.87 0 003.67-4.417 9.732 9.732 0 00.567-5.688 9.807 9.807 0 00-2.728-5.04A10.005 10.005 0 0012.828.508a10.082 10.082 0 00-5.758.56 9.94 9.94 0 00-4.473 3.626 9.758 9.758 0 00-1.68 5.47 9.788 9.788 0 002.92 6.96 10.03 10.03 0 007.047 2.883zM6.19 7.843l2.346-2.317 2.348 2.32 2.35-2.32 2.348 2.32-2.348 2.318 2.348 2.32-2.348 2.319-2.349-2.32-2.348 2.32-2.347-2.32 2.348-2.32-2.348-2.32z"/></g><defs><clipPath id="clip0"><path fill="#fff" d="M.918.32h53.153v56H.918z"/></clipPath></defs></svg>