<svg width="39" height="58" fill="none" xmlns="http://www.w3.org/2000/svg"><g clip-path="url(#clip0)" fill="#FFBD00"><path d="M15.086 3.37h9.662a.462.462 0 00.323-.131.447.447 0 00.134-.318V0H14.63v2.926a.454.454 0 00.455.444zm9.544 35.51h-9.424v3.169h9.423V38.88z"/><path d="M32.593 0H28.66v2.926a3.821 3.821 0 01-1.147 2.72 3.95 3.95 0 01-2.765 1.128h-9.66a3.949 3.949 0 01-2.765-1.128 3.82 3.82 0 01-1.146-2.72V0H7.242a6.385 6.385 0 00-4.47 1.824A6.178 6.178 0 00.918 6.222v45.556a6.178 6.178 0 001.854 4.398A6.385 6.385 0 007.242 58h25.352a6.385 6.385 0 004.47-1.824 6.178 6.178 0 001.855-4.398V6.222a6.178 6.178 0 00-1.855-4.398A6.385 6.385 0 0032.594 0zm-6.289 22.136c.458 0 .898.179 1.222.497.324.32.506.751.506 1.202v1.511a1.673 1.673 0 01-.472 1.259 1.727 1.727 0 01-1.253.53 1.753 1.753 0 01-1.254-.53 1.694 1.694 0 01-.472-1.259v-1.51c0-.451.182-.883.505-1.202a1.741 1.741 0 011.22-.498h-.002zm-4.997-3.214c.024-.435.215-.844.536-1.144.321-.3.747-.466 1.19-.466.442 0 .867.166 1.188.466.321.3.513.71.537 1.144v1.51a1.688 1.688 0 01-.537 1.144 1.743 1.743 0 01-2.378 0 1.687 1.687 0 01-.536-1.143v-1.511zm-1.388 3.214c.458 0 .898.179 1.221.497.324.32.506.751.506 1.202v1.511a1.688 1.688 0 01-.536 1.144c-.32.3-.746.466-1.189.466-.442 0-.868-.167-1.189-.466a1.688 1.688 0 01-.536-1.144v-1.51c0-.45.181-.882.504-1.2.323-.32.76-.499 1.218-.5zm-4.844-3.214c.024-.435.216-.844.537-1.144.32-.3.746-.466 1.189-.466.442 0 .868.166 1.189.466.32.3.513.71.536 1.144v1.51a1.688 1.688 0 01-.536 1.144 1.743 1.743 0 01-2.378 0 1.687 1.687 0 01-.537-1.143v-1.511zm-3.271 4.915a1.675 1.675 0 01.472-1.259 1.728 1.728 0 011.253-.53 1.751 1.751 0 011.253.53 1.696 1.696 0 01.472 1.26v1.51a1.687 1.687 0 01-.536 1.144 1.743 1.743 0 01-2.378 0 1.688 1.688 0 01-.536-1.144v-1.51zm-.051 14.012c0-.627.254-1.228.705-1.671a2.428 2.428 0 011.699-.694H25.68c.637 0 1.248.25 1.7.693a2.35 2.35 0 01.705 1.672v5.233a2.35 2.35 0 01-.706 1.672 2.428 2.428 0 01-1.7.694H14.158a2.431 2.431 0 01-1.7-.694 2.35 2.35 0 01-.704-1.672V37.85zm14.655 14.452h-12.98a1.755 1.755 0 01-1.28-.464 1.7 1.7 0 01-.538-1.233 1.677 1.677 0 01.538-1.233 1.731 1.731 0 011.28-.464h12.98a1.74 1.74 0 011.162.528 1.681 1.681 0 010 2.339 1.74 1.74 0 01-1.162.527z"/></g><defs><clipPath id="clip0"><path fill="#fff" d="M.918 0h38v58h-38z"/></clipPath></defs></svg>