<svg width="52" height="58" fill="none" xmlns="http://www.w3.org/2000/svg"><g clip-path="url(#clip0)" fill="#FFBD00"><path d="M4.833 17.96h5.75c.463 0 .908-.18 1.236-.499.328-.318.513-.75.513-1.201v-5.58c0-.451.184-.884.512-1.203a1.775 1.775 0 011.237-.497h5.744c.464 0 .909.179 1.237.497.328.32.512.752.512 1.202v5.582c0 .449.184.88.51 1.198.326.318.768.498 1.23.5h5.745c.464 0 .909-.179 1.237-.498.328-.318.512-.75.512-1.201v-5.58c0-.451.184-.884.512-1.203a1.775 1.775 0 011.237-.497H38.3c.464 0 .909.179 1.237.497.328.32.512.752.512 1.202v5.582c0 .45.184.883.513 1.202.328.318.772.497 1.236.497h5.744c.464 0 .91-.179 1.237-.497.328-.32.513-.751.513-1.202v-5.582c0-.45-.185-.883-.513-1.202a1.776 1.776 0 00-1.237-.497h-5.745c-.464 0-.909-.18-1.237-.498a1.676 1.676 0 01-.512-1.202V1.7c0-.451-.184-.883-.512-1.202A1.776 1.776 0 0038.3 0h-5.744a1.788 1.788 0 00-1.237.498 1.696 1.696 0 00-.38.551 1.658 1.658 0 00-.132.65V7.28c0 .223-.046.444-.133.65a1.697 1.697 0 01-.38.552 1.754 1.754 0 01-.567.368c-.212.086-.44.13-.67.13h-5.742c-.464 0-.91-.18-1.237-.498a1.676 1.676 0 01-.513-1.202V1.7c0-.451-.184-.883-.512-1.202A1.775 1.775 0 0019.817 0h-5.742c-.464 0-.91.18-1.237.498a1.676 1.676 0 00-.513 1.202v5.58c0 .45-.183.881-.51 1.2-.326.318-.77.498-1.233.5H4.833c-.464 0-.909.179-1.237.497a1.676 1.676 0 00-.512 1.202v5.582c0 .45.184.883.512 1.202.328.318.773.497 1.237.497zm.753 14.56l.37.36v-2.304c0-.584.06-1.166.18-1.738a6.41 6.41 0 00-2.513-.51H1.754a1.797 1.797 0 00-.683.117 1.757 1.757 0 00-.584.365c-.167.158-.3.348-.39.557a1.658 1.658 0 00.39 1.878 1.797 1.797 0 001.267.481h1.873c.364 0 .725.07 1.061.206.336.136.642.336.898.587zM37.43 21.84H14.947c-.721 0-1.436.138-2.103.406a5.505 5.505 0 00-1.782 1.158 5.328 5.328 0 00-1.191 1.732 5.206 5.206 0 00-.418 2.043v5.58h33.466v-5.58a5.262 5.262 0 00-1.607-3.774 5.575 5.575 0 00-3.882-1.565zM2.104 53.873a5.326 5.326 0 001.936 2.97A5.599 5.599 0 007.455 58h1.873c1.196 0 2.36-.378 3.313-1.079a5.333 5.333 0 001.972-2.803H3.71a5.364 5.364 0 01-1.606-.245zM44.917 36.16H7.455a5.583 5.583 0 00-3.883 1.565A5.27 5.27 0 001.96 41.5v.24h9.242c.455.012.888.196 1.206.513.318.318.496.743.496 1.186 0 .443-.178.868-.496 1.186a1.773 1.773 0 01-1.206.513H1.96v3.882c0 .45.185.883.513 1.202.328.319.773.498 1.237.498h44.954c.23 0 .457-.043.67-.128.212-.085.405-.21.568-.368a1.658 1.658 0 00.514-1.202V45.14H41.17a1.773 1.773 0 01-1.206-.513 1.674 1.674 0 01-.496-1.185c0-.443.178-.869.496-1.186a1.77 1.77 0 011.206-.514h9.246v-.24a5.27 5.27 0 00-1.611-3.776 5.583 5.583 0 00-3.888-1.565zm5.335-7.463H48.38a6.44 6.44 0 00-2.101.35c.093.505.14 1.018.14 1.531v2.306c.258-.25.563-.45.9-.585a2.822 2.822 0 011.061-.204h1.873a1.795 1.795 0 001.267-.481c.167-.158.3-.348.391-.557a1.66 1.66 0 00-.391-1.878 1.793 1.793 0 00-1.267-.481zM37.757 54.12a5.34 5.34 0 001.974 2.801c.954.7 2.117 1.08 3.313 1.08h1.873a5.6 5.6 0 003.416-1.156 5.319 5.319 0 001.934-2.97 5.367 5.367 0 01-1.607.24l-10.903.004z"/></g><defs><clipPath id="clip0"><path fill="#fff" d="M0 0h52v58H0z"/></clipPath></defs></svg>