<svg width="202" height="111" fill="none" xmlns="http://www.w3.org/2000/svg"><path d="M30.861 58.31a4.914 4.914 0 00-4.91-4.918 4.914 4.914 0 00-4.91 4.918v47.772a4.914 4.914 0 004.91 4.918 4.914 4.914 0 004.91-4.918V58.31z" fill="url(#paint0_linear)"/><path d="M49.097 72.36a4.914 4.914 0 00-4.91-4.917 4.914 4.914 0 00-4.91 4.918v33.721a4.914 4.914 0 004.91 4.918 4.914 4.914 0 004.91-4.918V72.361z" fill="url(#paint1_linear)"/><path d="M67.333 68.848a4.212 4.212 0 00-4.208-4.215 4.212 4.212 0 00-4.208 4.215v37.937A4.212 4.212 0 0063.125 111a4.212 4.212 0 004.208-4.215V68.848z" fill="url(#paint2_linear)"/><path d="M85.57 75.874a4.212 4.212 0 00-4.209-4.216 4.212 4.212 0 00-4.208 4.216v30.911A4.212 4.212 0 0081.36 111a4.212 4.212 0 004.208-4.215V75.874z" fill="url(#paint3_linear)"/><path d="M103.806 85.709a4.212 4.212 0 00-4.209-4.215 4.212 4.212 0 00-4.208 4.215v21.076A4.212 4.212 0 0099.597 111a4.212 4.212 0 004.209-4.215V85.709z" fill="url(#paint4_linear)"/><path d="M122.042 81.494a4.212 4.212 0 00-4.209-4.216 4.212 4.212 0 00-4.208 4.216v25.291a4.211 4.211 0 004.208 4.215 4.212 4.212 0 004.209-4.215V81.494z" fill="url(#paint5_linear)"/><path d="M140.278 71.658a4.212 4.212 0 00-4.209-4.215 4.212 4.212 0 00-4.208 4.215v35.127a4.211 4.211 0 004.208 4.215 4.212 4.212 0 004.209-4.215V71.658z" fill="url(#paint6_linear)"/><path d="M159.917 66.74a4.914 4.914 0 00-4.91-4.917 4.914 4.914 0 00-4.91 4.917v39.342a4.914 4.914 0 004.91 4.918 4.915 4.915 0 004.91-4.918V66.741z" fill="url(#paint7_linear)"/><path d="M178.153 58.31a4.914 4.914 0 00-4.91-4.918 4.914 4.914 0 00-4.91 4.918v47.772a4.914 4.914 0 004.91 4.918 4.914 4.914 0 004.91-4.918V58.31z" fill="url(#paint8_linear)"/><g filter="url(#filter0_d)"><path d="M51.903 46.367h-7.014a2.808 2.808 0 00-2.806 2.81v7.026a2.808 2.808 0 002.806 2.81h7.014a2.808 2.808 0 002.805-2.81v-7.026a2.808 2.808 0 00-2.805-2.81z" fill="#FDB51A"/></g><g filter="url(#filter1_d)"><path d="M157.111 42.152h-12.625a2.808 2.808 0 00-2.805 2.81v12.646a2.808 2.808 0 002.805 2.81h12.625a2.808 2.808 0 002.806-2.81V44.962a2.808 2.808 0 00-2.806-2.81z" fill="#FDB51A"/></g><g filter="url(#filter2_d)"><path d="M102.403 75.873h-4.209c-.774 0-1.402.63-1.402 1.405v4.216c0 .776.628 1.405 1.402 1.405h4.209c.775 0 1.403-.63 1.403-1.405v-4.216c0-.776-.628-1.405-1.403-1.405z" fill="#fff"/></g><defs><linearGradient id="paint0_linear" x1="25.951" y1="53.392" x2="25.951" y2="111" gradientUnits="userSpaceOnUse"><stop stop-color="#1C1F37"/><stop offset="1" stop-color="#232944"/></linearGradient><linearGradient id="paint1_linear" x1="44.188" y1="67.443" x2="44.188" y2="111" gradientUnits="userSpaceOnUse"><stop stop-color="#1C1F37"/><stop offset="1" stop-color="#232944"/></linearGradient><linearGradient id="paint2_linear" x1="63.125" y1="64.633" x2="63.125" y2="111" gradientUnits="userSpaceOnUse"><stop stop-color="#1C1F37"/><stop offset="1" stop-color="#232944"/></linearGradient><linearGradient id="paint3_linear" x1="81.361" y1="71.658" x2="81.361" y2="111" gradientUnits="userSpaceOnUse"><stop stop-color="#1C1F37"/><stop offset="1" stop-color="#232944"/></linearGradient><linearGradient id="paint4_linear" x1="99.597" y1="81.494" x2="99.597" y2="111" gradientUnits="userSpaceOnUse"><stop stop-color="#1C1F37"/><stop offset="1" stop-color="#232944"/></linearGradient><linearGradient id="paint5_linear" x1="117.833" y1="77.278" x2="117.833" y2="111" gradientUnits="userSpaceOnUse"><stop stop-color="#1C1F37"/><stop offset="1" stop-color="#232944"/></linearGradient><linearGradient id="paint6_linear" x1="136.069" y1="67.443" x2="136.069" y2="111" gradientUnits="userSpaceOnUse"><stop stop-color="#1C1F37"/><stop offset="1" stop-color="#232944"/></linearGradient><linearGradient id="paint7_linear" x1="155.007" y1="61.823" x2="155.007" y2="111" gradientUnits="userSpaceOnUse"><stop stop-color="#1C1F37"/><stop offset="1" stop-color="#232944"/></linearGradient><linearGradient id="paint8_linear" x1="173.243" y1="53.392" x2="173.243" y2="111" gradientUnits="userSpaceOnUse"><stop stop-color="#1C1F37"/><stop offset="1" stop-color="#232944"/></linearGradient><filter id="filter0_d" x="22.083" y="26.367" width="52.625" height="52.646" filterUnits="userSpaceOnUse" color-interpolation-filters="sRGB"><feFlood flood-opacity="0" result="BackgroundImageFix"/><feColorMatrix in="SourceAlpha" values="0 0 0 0 0 0 0 0 0 0 0 0 0 0 0 0 0 0 127 0"/><feOffset/><feGaussianBlur stdDeviation="10"/><feColorMatrix values="0 0 0 0 0.992157 0 0 0 0 0.713726 0 0 0 0 0.105882 0 0 0 1 0"/><feBlend in2="BackgroundImageFix" result="effect1_dropShadow"/><feBlend in="SourceGraphic" in2="effect1_dropShadow" result="shape"/></filter><filter id="filter1_d" x="121.681" y="22.152" width="58.236" height="58.266" filterUnits="userSpaceOnUse" color-interpolation-filters="sRGB"><feFlood flood-opacity="0" result="BackgroundImageFix"/><feColorMatrix in="SourceAlpha" values="0 0 0 0 0 0 0 0 0 0 0 0 0 0 0 0 0 0 127 0"/><feOffset/><feGaussianBlur stdDeviation="10"/><feColorMatrix values="0 0 0 0 0.992157 0 0 0 0 0.713726 0 0 0 0 0.105882 0 0 0 1 0"/><feBlend in2="BackgroundImageFix" result="effect1_dropShadow"/><feBlend in="SourceGraphic" in2="effect1_dropShadow" result="shape"/></filter><filter id="filter2_d" x="86.792" y="65.873" width="27.014" height="27.025" filterUnits="userSpaceOnUse" color-interpolation-filters="sRGB"><feFlood flood-opacity="0" result="BackgroundImageFix"/><feColorMatrix in="SourceAlpha" values="0 0 0 0 0 0 0 0 0 0 0 0 0 0 0 0 0 0 127 0"/><feOffset/><feGaussianBlur stdDeviation="5"/><feColorMatrix values="0 0 0 0 1 0 0 0 0 1 0 0 0 0 1 0 0 0 1 0"/><feBlend in2="BackgroundImageFix" result="effect1_dropShadow"/><feBlend in="SourceGraphic" in2="effect1_dropShadow" result="shape"/></filter></defs></svg>