<svg width="229" height="116" fill="none" xmlns="http://www.w3.org/2000/svg"><g clip-path="url(#clip0)"><path d="M205.257-.001l1.389 85.407h-4.191l2.802-85.407z" fill="url(#paint0_linear)"/><path opacity=".2" d="M.787 47.817s4.244 1.726 20.066.113c15.823-1.612 7.377-11.713 20.325-11.785 12.949-.071 6.986 27.268 22.454 26.895 15.467-.372 15.245-13.054 22.133-15.223 6.888-2.169 11.7-.26 17.071-3.797 5.372-3.538 3.679-18.454 16.672-18.482 12.993-.028 6.575 23.408 14.59 29.337 8.015 5.93 16.299 1.672 25.317 4.66 9.019 2.987 5.052 7.317 12.008 11.58 6.957 4.263 15.153 2.41 15.153 2.41" stroke="#fff" stroke-width="3"/><g filter="url(#filter0_d)"><path d="M14.212 46.761s3.632 2.68 17.166.175c13.534-2.505 6.31-18.186 17.388-18.298 11.078-.112 5.979 42.335 19.21 41.759 13.23-.577 13.041-20.269 18.934-23.636 5.893-3.367 10.01-.403 14.605-5.896 4.595-5.492 3.146-28.65 14.263-28.692 11.117-.042 5.625 36.343 12.482 45.547 6.857 9.204 13.943 2.596 21.655 7.234 7.712 4.639 4.322 11.362 10.273 17.98a11.838 11.838 0 0012.964 3.741" stroke="#FDB51A" stroke-width="3"/></g><path d="M.787 46.106s4.244 3.268 20.066.214c15.823-3.053 7.377-22.178 20.325-22.315 12.949-.137 6.986 51.628 22.454 50.925 15.467-.703 15.245-24.718 22.133-28.824 6.888-4.107 11.7-.491 17.071-7.19 5.372-6.698 3.679-34.94 16.672-34.99 12.993-.05 6.575 44.32 14.59 55.545 8.015 11.225 16.299 3.166 25.317 8.821 9.019 5.656 5.052 13.862 12.008 21.928 6.957 8.066 15.153 4.561 15.153 4.561" stroke="#fff"/><g filter="url(#filter1_d)"><path d="M208.043 87.506c0-1.933-1.564-3.5-3.493-3.5a3.496 3.496 0 00-3.492 3.5c0 1.933 1.563 3.5 3.492 3.5a3.497 3.497 0 003.493-3.5z" fill="#fff"/></g></g><defs><filter id="filter0_d" x="7.324" y="10.673" width="172.307" height="94.124" filterUnits="userSpaceOnUse" color-interpolation-filters="sRGB"><feFlood flood-opacity="0" result="BackgroundImageFix"/><feColorMatrix in="SourceAlpha" values="0 0 0 0 0 0 0 0 0 0 0 0 0 0 0 0 0 0 127 0"/><feOffset dy="10"/><feGaussianBlur stdDeviation="3"/><feColorMatrix values="0 0 0 0 0.992157 0 0 0 0 0.709804 0 0 0 0 0.101961 0 0 0 0.604 0"/><feBlend in2="BackgroundImageFix" result="effect1_dropShadow"/><feBlend in="SourceGraphic" in2="effect1_dropShadow" result="shape"/></filter><filter id="filter1_d" x="191.058" y="74.006" width="26.986" height="27.001" filterUnits="userSpaceOnUse" color-interpolation-filters="sRGB"><feFlood flood-opacity="0" result="BackgroundImageFix"/><feColorMatrix in="SourceAlpha" values="0 0 0 0 0 0 0 0 0 0 0 0 0 0 0 0 0 0 127 0"/><feOffset/><feGaussianBlur stdDeviation="5"/><feColorMatrix values="0 0 0 0 1 0 0 0 0 1 0 0 0 0 1 0 0 0 1 0"/><feBlend in2="BackgroundImageFix" result="effect1_dropShadow"/><feBlend in="SourceGraphic" in2="effect1_dropShadow" result="shape"/></filter><linearGradient id="paint0_linear" x1="204.55" y1="-.001" x2="204.55" y2="85.406" gradientUnits="userSpaceOnUse"><stop stop-color="#fff" stop-opacity="0"/><stop offset="1" stop-color="#fff"/></linearGradient><clipPath id="clip0"><path fill="#fff" d="M0 0h229v116H0z"/></clipPath></defs></svg>