<svg width="256" height="100" fill="none" xmlns="http://www.w3.org/2000/svg"><g clip-path="url(#clip0)"><path d="M123.947 43.687c.13-.958.199-1.924.207-2.891a22.916 22.916 0 00-.207-2.891l6.225-4.872a1.488 1.488 0 00.354-1.888l-5.897-10.21a1.484 1.484 0 00-1.794-.648l-7.347 2.949a21.57 21.57 0 00-4.985-2.891l-1.122-7.82a1.442 1.442 0 00-1.452-1.235H96.127a1.439 1.439 0 00-1.446 1.24l-1.121 7.82a22.668 22.668 0 00-4.986 2.89l-7.346-2.948a1.44 1.44 0 00-1.795.649L73.536 31.15a1.456 1.456 0 00.354 1.888l6.225 4.872a23.4 23.4 0 00-.215 2.885c.009.967.078 1.932.206 2.89l-6.225 4.872a1.489 1.489 0 00-.352 1.886l5.897 10.21a1.483 1.483 0 001.794.648l7.347-2.949a21.553 21.553 0 004.985 2.891l1.122 7.82a1.438 1.438 0 001.446 1.24h11.801a1.436 1.436 0 001.446-1.24l1.122-7.82a22.662 22.662 0 004.985-2.89l7.346 2.948a1.441 1.441 0 001.795-.649l5.897-10.209c.174-.305.233-.663.168-1.008a1.482 1.482 0 00-.522-.88l-6.211-4.868zm-21.92 7.436A10.325 10.325 0 0191.899 38.78a10.327 10.327 0 0120.453 2.015 10.339 10.339 0 01-10.324 10.326h-.001z" fill="url(#paint0_linear)"/><path d="M142.359 78.109c.065-.48.1-.963.104-1.446a11.47 11.47 0 00-.104-1.447l3.113-2.435a.744.744 0 00.177-.944l-2.949-5.104a.74.74 0 00-.897-.324l-3.677 1.475a10.76 10.76 0 00-2.493-1.446l-.56-3.909a.717.717 0 00-.723-.619h-5.897a.718.718 0 00-.723.62l-.56 3.908c-.891.374-1.73.86-2.497 1.447L121 66.41a.719.719 0 00-.897.325l-2.954 5.103a.726.726 0 00.177.944l3.113 2.436c-.065.48-.099.962-.104 1.446.005.484.039.967.104 1.446l-3.113 2.436a.744.744 0 00-.177.944l2.949 5.103a.738.738 0 00.897.325l3.673-1.476a10.764 10.764 0 002.493 1.446l.56 3.91a.72.72 0 00.723.618h5.897a.722.722 0 00.723-.619l.56-3.909a11.33 11.33 0 002.493-1.446l3.682 1.468a.718.718 0 00.897-.324l2.949-5.104a.748.748 0 00-.177-.944l-3.109-2.43zm-10.96 3.718a5.165 5.165 0 115.163-5.164 5.167 5.167 0 01-5.163 5.164z" fill="url(#paint1_linear)"/><path d="M166.727 49.146c.082-.615.124-1.236.128-1.856a14.791 14.791 0 00-.128-1.857l3.996-3.125a.96.96 0 00.227-1.212l-3.787-6.553a.955.955 0 00-1.154-.416l-4.717 1.893a13.868 13.868 0 00-3.205-1.856l-.715-5.02a.924.924 0 00-.926-.795h-7.577a.925.925 0 00-.928.796l-.725 5.019a14.527 14.527 0 00-3.204 1.856l-4.706-1.893a.925.925 0 00-1.154.416l-3.789 6.553a.931.931 0 00.227 1.212l3.995 3.125a14.97 14.97 0 00-.128 1.857c.004.62.047 1.24.128 1.856l-3.995 3.124a.951.951 0 00-.227 1.212l3.788 6.553a.951.951 0 001.153.416l4.715-1.893c.981.76 2.058 1.384 3.205 1.856l.719 5.02a.922.922 0 00.928.794h7.575a.92.92 0 00.928-.795l.719-5.019a14.552 14.552 0 003.205-1.856l4.715 1.893a.924.924 0 001.154-.416l3.784-6.557a.96.96 0 00-.227-1.211l-3.997-3.12zm-14.07 4.773a6.63 6.63 0 116.628-6.63 6.632 6.632 0 01-6.628 6.63z" fill="url(#paint2_linear)"/><path d="M89.732 22.582l166.263-2.709v8.178L89.732 22.582z" fill="url(#paint3_linear)"/><path d="M166.262 76.428L-.001 73.72v8.178l166.263-5.469z" fill="url(#paint4_linear)"/><g filter="url(#filter0_d)"><path d="M27.822 40.385H25.26c-.708 0-1.282.574-1.282 1.282v2.564c0 .708.574 1.282 1.282 1.282h2.563c.708 0 1.282-.574 1.282-1.282v-2.564c0-.708-.574-1.282-1.282-1.282z" fill="#FDB51A"/></g><g filter="url(#filter1_d)"><path d="M227.799 86.538v2.565c0 .708.574 1.282 1.282 1.282h2.564c.708 0 1.282-.574 1.282-1.282v-2.564c0-.709-.574-1.283-1.282-1.283h-2.564c-.708 0-1.282.574-1.282 1.282z" fill="#fff"/></g><g filter="url(#filter2_d)"><path d="M27.822 25H25.26c-.708 0-1.282.574-1.282 1.282v2.564c0 .708.574 1.282 1.282 1.282h2.563c.708 0 1.282-.574 1.282-1.282v-2.564c0-.708-.574-1.282-1.282-1.282z" fill="#FDB51A"/></g><g filter="url(#filter3_d)"><path d="M212.417 86.538v2.565c0 .708.573 1.282 1.281 1.282h2.564c.708 0 1.282-.574 1.282-1.282v-2.564c0-.709-.574-1.283-1.282-1.283h-2.564c-.708 0-1.281.574-1.281 1.282z" fill="#fff"/></g><g filter="url(#filter4_d)"><path d="M27.822 9.615H25.26c-.708 0-1.282.574-1.282 1.282v2.564c0 .709.574 1.283 1.282 1.283h2.563c.708 0 1.282-.574 1.282-1.283v-2.564c0-.708-.574-1.282-1.282-1.282z" fill="#FDB51A"/></g><g filter="url(#filter5_d)"><path d="M197.034 86.538v2.565c0 .708.574 1.282 1.282 1.282h2.563c.708 0 1.282-.574 1.282-1.282v-2.564c0-.709-.574-1.283-1.282-1.283h-2.563c-.708 0-1.282.574-1.282 1.282z" fill="#fff"/></g><g filter="url(#filter6_d)"><path d="M41.923 40.385H39.36c-.707 0-1.281.574-1.281 1.282v2.564c0 .708.574 1.282 1.281 1.282h2.564c.708 0 1.282-.574 1.282-1.282v-2.564c0-.708-.574-1.282-1.282-1.282z" fill="#FDB51A"/></g><g filter="url(#filter7_d)"><path d="M227.799 72.436V75c0 .708.574 1.282 1.282 1.282h2.564c.708 0 1.282-.574 1.282-1.282v-2.564c0-.708-.574-1.282-1.282-1.282h-2.564c-.708 0-1.282.574-1.282 1.282z" fill="#fff"/></g><g filter="url(#filter8_d)"><path d="M41.923 25H39.36c-.707 0-1.281.574-1.281 1.282v2.564c0 .708.574 1.282 1.281 1.282h2.564c.708 0 1.282-.574 1.282-1.282v-2.564c0-.708-.574-1.282-1.282-1.282z" fill="#FDB51A"/></g><g filter="url(#filter9_d)"><path d="M212.417 72.436V75c0 .708.573 1.282 1.281 1.282h2.564c.708 0 1.282-.574 1.282-1.282v-2.564c0-.708-.574-1.282-1.282-1.282h-2.564c-.708 0-1.281.574-1.281 1.282z" fill="#fff"/></g><g filter="url(#filter10_d)"><path d="M56.024 40.385h-2.563c-.709 0-1.282.574-1.282 1.282v2.564c0 .708.573 1.282 1.282 1.282h2.563c.708 0 1.282-.574 1.282-1.282v-2.564c0-.708-.574-1.282-1.282-1.282z" fill="#FDB51A"/></g><g filter="url(#filter11_d)"><path d="M227.799 58.333v2.565c0 .707.574 1.281 1.282 1.281h2.564c.708 0 1.282-.574 1.282-1.282v-2.564c0-.708-.574-1.282-1.282-1.282h-2.564c-.708 0-1.282.574-1.282 1.282z" fill="#fff"/></g></g><defs><filter id="filter0_d" x="18.977" y="35.385" width="15.128" height="15.128" filterUnits="userSpaceOnUse" color-interpolation-filters="sRGB"><feFlood flood-opacity="0" result="BackgroundImageFix"/><feColorMatrix in="SourceAlpha" values="0 0 0 0 0 0 0 0 0 0 0 0 0 0 0 0 0 0 127 0"/><feOffset/><feGaussianBlur stdDeviation="2.5"/><feColorMatrix values="0 0 0 0 0.992157 0 0 0 0 0.713726 0 0 0 0 0.105882 0 0 0 1 0"/><feBlend in2="BackgroundImageFix" result="effect1_dropShadow"/><feBlend in="SourceGraphic" in2="effect1_dropShadow" result="shape"/></filter><filter id="filter1_d" x="222.799" y="80.256" width="15.128" height="15.128" filterUnits="userSpaceOnUse" color-interpolation-filters="sRGB"><feFlood flood-opacity="0" result="BackgroundImageFix"/><feColorMatrix in="SourceAlpha" values="0 0 0 0 0 0 0 0 0 0 0 0 0 0 0 0 0 0 127 0"/><feOffset/><feGaussianBlur stdDeviation="2.5"/><feColorMatrix values="0 0 0 0 1 0 0 0 0 1 0 0 0 0 1 0 0 0 1 0"/><feBlend in2="BackgroundImageFix" result="effect1_dropShadow"/><feBlend in="SourceGraphic" in2="effect1_dropShadow" result="shape"/></filter><filter id="filter2_d" x="18.977" y="20" width="15.128" height="15.128" filterUnits="userSpaceOnUse" color-interpolation-filters="sRGB"><feFlood flood-opacity="0" result="BackgroundImageFix"/><feColorMatrix in="SourceAlpha" values="0 0 0 0 0 0 0 0 0 0 0 0 0 0 0 0 0 0 127 0"/><feOffset/><feGaussianBlur stdDeviation="2.5"/><feColorMatrix values="0 0 0 0 0.992157 0 0 0 0 0.713726 0 0 0 0 0.105882 0 0 0 1 0"/><feBlend in2="BackgroundImageFix" result="effect1_dropShadow"/><feBlend in="SourceGraphic" in2="effect1_dropShadow" result="shape"/></filter><filter id="filter3_d" x="207.417" y="80.256" width="15.128" height="15.128" filterUnits="userSpaceOnUse" color-interpolation-filters="sRGB"><feFlood flood-opacity="0" result="BackgroundImageFix"/><feColorMatrix in="SourceAlpha" values="0 0 0 0 0 0 0 0 0 0 0 0 0 0 0 0 0 0 127 0"/><feOffset/><feGaussianBlur stdDeviation="2.5"/><feColorMatrix values="0 0 0 0 1 0 0 0 0 1 0 0 0 0 1 0 0 0 1 0"/><feBlend in2="BackgroundImageFix" result="effect1_dropShadow"/><feBlend in="SourceGraphic" in2="effect1_dropShadow" result="shape"/></filter><filter id="filter4_d" x="18.977" y="4.615" width="15.128" height="15.128" filterUnits="userSpaceOnUse" color-interpolation-filters="sRGB"><feFlood flood-opacity="0" result="BackgroundImageFix"/><feColorMatrix in="SourceAlpha" values="0 0 0 0 0 0 0 0 0 0 0 0 0 0 0 0 0 0 127 0"/><feOffset/><feGaussianBlur stdDeviation="2.5"/><feColorMatrix values="0 0 0 0 0.992157 0 0 0 0 0.713726 0 0 0 0 0.105882 0 0 0 1 0"/><feBlend in2="BackgroundImageFix" result="effect1_dropShadow"/><feBlend in="SourceGraphic" in2="effect1_dropShadow" result="shape"/></filter><filter id="filter5_d" x="192.034" y="80.256" width="15.128" height="15.128" filterUnits="userSpaceOnUse" color-interpolation-filters="sRGB"><feFlood flood-opacity="0" result="BackgroundImageFix"/><feColorMatrix in="SourceAlpha" values="0 0 0 0 0 0 0 0 0 0 0 0 0 0 0 0 0 0 127 0"/><feOffset/><feGaussianBlur stdDeviation="2.5"/><feColorMatrix values="0 0 0 0 1 0 0 0 0 1 0 0 0 0 1 0 0 0 1 0"/><feBlend in2="BackgroundImageFix" result="effect1_dropShadow"/><feBlend in="SourceGraphic" in2="effect1_dropShadow" result="shape"/></filter><filter id="filter6_d" x="33.078" y="35.385" width="15.128" height="15.128" filterUnits="userSpaceOnUse" color-interpolation-filters="sRGB"><feFlood flood-opacity="0" result="BackgroundImageFix"/><feColorMatrix in="SourceAlpha" values="0 0 0 0 0 0 0 0 0 0 0 0 0 0 0 0 0 0 127 0"/><feOffset/><feGaussianBlur stdDeviation="2.5"/><feColorMatrix values="0 0 0 0 0.992157 0 0 0 0 0.713726 0 0 0 0 0.105882 0 0 0 1 0"/><feBlend in2="BackgroundImageFix" result="effect1_dropShadow"/><feBlend in="SourceGraphic" in2="effect1_dropShadow" result="shape"/></filter><filter id="filter7_d" x="222.799" y="66.154" width="15.128" height="15.128" filterUnits="userSpaceOnUse" color-interpolation-filters="sRGB"><feFlood flood-opacity="0" result="BackgroundImageFix"/><feColorMatrix in="SourceAlpha" values="0 0 0 0 0 0 0 0 0 0 0 0 0 0 0 0 0 0 127 0"/><feOffset/><feGaussianBlur stdDeviation="2.5"/><feColorMatrix values="0 0 0 0 1 0 0 0 0 1 0 0 0 0 1 0 0 0 1 0"/><feBlend in2="BackgroundImageFix" result="effect1_dropShadow"/><feBlend in="SourceGraphic" in2="effect1_dropShadow" result="shape"/></filter><filter id="filter8_d" x="33.078" y="20" width="15.128" height="15.128" filterUnits="userSpaceOnUse" color-interpolation-filters="sRGB"><feFlood flood-opacity="0" result="BackgroundImageFix"/><feColorMatrix in="SourceAlpha" values="0 0 0 0 0 0 0 0 0 0 0 0 0 0 0 0 0 0 127 0"/><feOffset/><feGaussianBlur stdDeviation="2.5"/><feColorMatrix values="0 0 0 0 0.992157 0 0 0 0 0.713726 0 0 0 0 0.105882 0 0 0 1 0"/><feBlend in2="BackgroundImageFix" result="effect1_dropShadow"/><feBlend in="SourceGraphic" in2="effect1_dropShadow" result="shape"/></filter><filter id="filter9_d" x="207.417" y="66.154" width="15.128" height="15.128" filterUnits="userSpaceOnUse" color-interpolation-filters="sRGB"><feFlood flood-opacity="0" result="BackgroundImageFix"/><feColorMatrix in="SourceAlpha" values="0 0 0 0 0 0 0 0 0 0 0 0 0 0 0 0 0 0 127 0"/><feOffset/><feGaussianBlur stdDeviation="2.5"/><feColorMatrix values="0 0 0 0 1 0 0 0 0 1 0 0 0 0 1 0 0 0 1 0"/><feBlend in2="BackgroundImageFix" result="effect1_dropShadow"/><feBlend in="SourceGraphic" in2="effect1_dropShadow" result="shape"/></filter><filter id="filter10_d" x="47.179" y="35.385" width="15.128" height="15.128" filterUnits="userSpaceOnUse" color-interpolation-filters="sRGB"><feFlood flood-opacity="0" result="BackgroundImageFix"/><feColorMatrix in="SourceAlpha" values="0 0 0 0 0 0 0 0 0 0 0 0 0 0 0 0 0 0 127 0"/><feOffset/><feGaussianBlur stdDeviation="2.5"/><feColorMatrix values="0 0 0 0 0.992157 0 0 0 0 0.713726 0 0 0 0 0.105882 0 0 0 1 0"/><feBlend in2="BackgroundImageFix" result="effect1_dropShadow"/><feBlend in="SourceGraphic" in2="effect1_dropShadow" result="shape"/></filter><filter id="filter11_d" x="222.799" y="52.051" width="15.128" height="15.128" filterUnits="userSpaceOnUse" color-interpolation-filters="sRGB"><feFlood flood-opacity="0" result="BackgroundImageFix"/><feColorMatrix in="SourceAlpha" values="0 0 0 0 0 0 0 0 0 0 0 0 0 0 0 0 0 0 127 0"/><feOffset/><feGaussianBlur stdDeviation="2.5"/><feColorMatrix values="0 0 0 0 1 0 0 0 0 1 0 0 0 0 1 0 0 0 1 0"/><feBlend in2="BackgroundImageFix" result="effect1_dropShadow"/><feBlend in="SourceGraphic" in2="effect1_dropShadow" result="shape"/></filter><linearGradient id="paint0_linear" x1="102.026" y1="11.289" x2="102.026" y2="70.304" gradientUnits="userSpaceOnUse"><stop stop-color="#1B1E35"/><stop offset="1" stop-color="#27304B"/></linearGradient><linearGradient id="paint1_linear" x1="131.396" y1="61.91" x2="131.396" y2="91.417" gradientUnits="userSpaceOnUse"><stop stop-color="#1B1E35"/><stop offset="1" stop-color="#27304B"/></linearGradient><linearGradient id="paint2_linear" x1="152.653" y1="28.35" x2="152.653" y2="66.228" gradientUnits="userSpaceOnUse"><stop stop-color="#1B1E35"/><stop offset="1" stop-color="#27304B"/></linearGradient><linearGradient id="paint3_linear" x1="89.732" y1="23.962" x2="255.995" y2="23.962" gradientUnits="userSpaceOnUse"><stop stop-color="#fff" stop-opacity="0"/><stop offset="1" stop-color="#fff"/></linearGradient><linearGradient id="paint4_linear" x1="166.262" y1="77.808" x2="-.001" y2="77.808" gradientUnits="userSpaceOnUse"><stop stop-color="#FDB51A" stop-opacity="0"/><stop offset="1" stop-color="#FDB51A"/></linearGradient><clipPath id="clip0"><path fill="#fff" d="M0 0h256v100H0z"/></clipPath></defs></svg>