<svg width="29" height="30" fill="none" xmlns="http://www.w3.org/2000/svg"><path d="M18.85 15a4.35 4.35 0 01-8.7 0c0-.248.026-.49.071-.725H8.7v5.796c0 .403.326.729.73.729h10.142a.73.73 0 00.728-.73v-5.795h-1.521c.045.235.071.477.071.725zm-4.35 2.9a2.902 2.902 0 001.109-5.581A2.9 2.9 0 1014.5 17.9zm3.48-5.945h1.739a.436.436 0 00.436-.435V9.781a.437.437 0 00-.436-.436H17.98a.437.437 0 00-.436.436v1.739c.001.24.197.435.436.435zM14.5 1.08a13.92 13.92 0 100 27.84 13.92 13.92 0 000-27.84zm7.25 19.559c0 .886-.725 1.611-1.61 1.611H8.86a1.616 1.616 0 01-1.611-1.611V9.361c0-.886.725-1.611 1.611-1.611h11.278c.886 0 1.611.725 1.611 1.61v11.28z" fill="#fff"/></svg>