<svg xmlns="http://www.w3.org/2000/svg" width="18.919" height="19.033"><path data-name="Path 1" d="M17.52 0H1.399a1.38 1.38 0 00-1.4 1.361v16.311a1.38 1.38 0 001.4 1.361H17.52a1.38 1.38 0 001.4-1.361V1.361A1.38 1.38 0 0017.52 0zM5.74 15.931H2.884V7.366H5.74zM4.311 6.167a1.485 1.485 0 110-2.969 1.494 1.494 0 110 2.969zm11.729 9.764h-2.86v-4.6c0-1.151-.409-1.9-1.447-1.9a1.57 1.57 0 00-1.466 1.037 1.9 1.9 0 00-.1.695v4.758H7.318V7.356h2.855v1.209a2.855 2.855 0 012.579-1.427c1.9 0 3.283 1.228 3.283 3.864z" fill="#272727"/></svg>