<svg width="223" height="34" fill="none" xmlns="http://www.w3.org/2000/svg"><g clip-path="url(#clip0)"><path d="M3.316 13.531H5.58c1.83 0 3.315-1.526 3.315-3.405 0-1.88-1.486-3.406-3.315-3.406H3.315C1.486 6.72 0 8.247 0 10.126c0 1.88 1.486 3.405 3.316 3.405zm2.264 6.894H3.317C1.486 20.425 0 21.95 0 23.83s1.486 3.406 3.316 3.406H5.58c1.83 0 3.315-1.527 3.315-3.406 0-1.879-1.48-3.405-3.315-3.405zM34.283.005H12.21c-1.829 0-3.315 1.526-3.315 3.405 0 1.879 1.486 3.405 3.316 3.405h6.887c1.564.278 2.75 1.67 2.75 3.355 0 1.75-1.288 3.191-2.943 3.385.12.015.247.02.372.02h-7.066c-1.83 0-3.316 1.526-3.316 3.405 0 1.879 1.486 3.405 3.316 3.405h7.066c-.082 0-.16.005-.242.01 1.718.124 3.074 1.596 3.074 3.395 0 1.8-1.355 3.266-3.074 3.395.078.005.16.01.242.01h-7.066c-1.83 0-3.316 1.526-3.316 3.405 0 1.879 1.486 3.405 3.316 3.405h22.072c9.032 0 16.355-7.61 16.355-17s-7.323-17-16.355-17zm-.15 27.876h-3.645c-.721 0-1.307-.607-1.307-1.357V7.486c0-.75.586-1.362 1.307-1.362h3.795c5.614 0 10.198 4.593 10.454 10.364.281 6.228-4.607 11.393-10.604 11.393z" fill="#FFBC00"/><path d="M64.277 2.65h6.462c8.625 0 12.715 5.573 12.715 14.263 0 8.685-4.09 14.442-12.672 14.442h-6.505V2.65zm6.268 27.005c7.575 0 10.866-5.26 10.866-12.747 0-7.482-3.291-12.563-10.866-12.563h-4.317v25.31h4.317zM95.53 2.65h1.95l9.845 28.705h-2.071l-5.58-16.903c-1.138-3.405-2.12-6.418-3.103-9.913h-.17c-.978 3.5-1.96 6.508-3.097 9.913l-5.659 16.903H85.68L95.53 2.65zm-5.353 17.17h12.531v1.676H90.177V19.82zM111.73 2.65h6.461c8.626 0 12.716 5.573 12.716 14.263 0 8.685-4.09 14.442-12.672 14.442h-6.505V2.65zm6.268 27.005c7.575 0 10.866-5.26 10.866-12.747 0-7.482-3.291-12.563-10.866-12.563h-4.318v25.31h4.318zM142.983 2.65h1.95l9.845 28.705h-2.071l-5.581-16.903c-1.138-3.405-2.12-6.418-3.103-9.913h-.169c-.978 3.5-1.96 6.508-3.098 9.913l-5.658 16.903h-1.965l9.85-28.705zm-5.354 17.171h12.532v1.676h-12.532V19.82z" fill="#fff"/><path d="M163.379 4.375h-8.896V2.65h19.743v1.725h-8.896v26.98h-1.951V4.375zm20.566-1.725h1.95l9.845 28.705h-2.071l-5.581-16.903c-1.137-3.405-2.12-6.418-3.103-9.913h-.169c-.978 3.5-1.96 6.508-3.098 9.913l-5.658 16.903h-1.965l9.85-28.705zm-5.349 17.171h12.532v1.676h-12.532V19.82zM205.6 16.49l-7.803-13.84h2.111l4.612 8.461c.746 1.308 1.341 2.327 2.256 3.923h.169c.823-1.596 1.341-2.615 2.077-3.923l4.588-8.461h1.999l-7.797 13.955 8.378 14.75h-2.11l-4.879-8.814c-.755-1.402-1.578-2.804-2.561-4.55h-.169c-.9 1.74-1.646 3.148-2.391 4.55l-4.86 8.814h-1.999L205.6 16.49zm15.449-13.84H223v28.705h-1.951V2.65z" fill="#FFBC00"/></g><defs><clipPath id="clip0"><path fill="#fff" d="M0 0h223v34H0z"/></clipPath></defs></svg>