<svg width="1059" height="1079" fill="none" xmlns="http://www.w3.org/2000/svg"><path d="M794.47 897.837l-1.997 1.42c-1.322.898-3.171 2.345-5.712 3.92-2.514 1.611-5.567 3.566-9.065 5.812-3.499 2.246-7.43 4.81-11.912 7.289a422.21 422.21 0 01-67.634 32.358 441.679 441.679 0 01-72.217 20.193l-13.755 2.452c-4.107.658-7.716 1.021-10.671 1.428l-9.312 1.173m-174.773-20.309s-1.493-.361-4.206-1.318c-2.721-.918-6.714-2.269-11.796-3.988-5.123-1.599-11.159-4.053-18.109-6.795-7.014-2.586-14.638-6.197-23.021-9.964a430.346 430.346 0 01-54.709-30.742 446.26 446.26 0 01-56.466-44.511c-36.254-33.143-65.096-73.483-82.927-105.56-2.363-3.943-4.357-7.872-6.252-11.609l-5.422-10.589c-3.204-6.741-5.799-12.717-8.033-17.586-2.233-4.869-3.595-8.877-4.71-11.52-1.055-2.67-1.615-4.096-1.615-4.096m503.706 240.367s-3.38.78-9.296 2.14c-2.971.62-6.518 1.657-10.692 2.327l-13.98 2.494a422.38 422.38 0 01-76.045 5.043 418.235 418.235 0 01-75.674-8.897l-13.835-3.193c-4.122-.936-7.624-2.102-10.556-2.882l-9.172-2.601M895.27 748.586l-1.821 3.119c-1.272 1.981-3.137 4.891-5.513 8.589-2.376 3.698-5.194 8.237-8.835 13.167-3.567 4.974-7.444 10.699-12.231 16.536l-7.266 9.247-8.24 9.511a6106.415 6106.415 0 00-4.298 4.962l-4.626 4.883a8323 8323 0 01-9.583 10.026 456.563 456.563 0 01-44.665 38.558 452.63 452.63 0 01-49.73 31.748c-8.424 4.216-16.392 8.658-24.351 12.025-3.942 1.763-7.749 3.542-11.479 5.152l-10.938 4.308c-6.957 2.912-13.572 4.936-19.359 6.936-5.766 2.071-10.92 3.468-15.153 4.654l-9.818 2.792c-2.271.625-3.506.858-3.506.858" stroke="#fff" stroke-opacity=".21" stroke-width="2" stroke-miterlimit="10"/><path d="M949.596 767.428s-2.866 4.951-7.876 13.615c-2.701 4.212-5.978 9.328-9.738 15.197-3.76 5.868-8.497 12.153-13.416 19.176-2.447 3.517-5.342 6.932-8.157 10.602-2.895 3.603-5.73 7.457-8.946 11.17-6.446 7.415-13.088 15.376-20.628 23-7.25 7.904-15.415 15.394-23.555 23.168-8.507 7.369-16.997 15.04-26.125 21.941-8.867 7.229-18.346 13.651-27.533 20.151-9.481 6.075-18.716 12.207-28.126 17.376-9.202 5.527-18.54 10.049-27.285 14.556-4.375 2.24-8.805 4.069-13.001 6.03-4.236 1.859-8.249 3.853-12.253 5.393-8.006 3.101-15.26 6.178-21.858 8.44l-17.116 5.789c-4.775 1.507-8.589 2.494-11.161 3.256a3042.7 3042.7 0 01-3.959 1.121m-214.707-67.041l-3.372-.774-4.053-.929-5.41-1.524c-4.04-1.173-8.988-2.488-14.598-4.198-5.539-1.928-11.853-3.928-18.635-6.391a393.37 393.37 0 01-169.59-122.715c-4.458-5.683-8.637-10.829-11.925-15.696-3.341-4.825-6.507-8.862-8.687-12.47-4.553-7.091-7.152-11.145-7.152-11.145m424.872 250.857l-10.692 1.916c-3.409.556-7.518 1.45-12.292 2.06l-16.033 2.041a480.15 480.15 0 01-86.617 1.62 473.847 473.847 0 01-85.553-14.292l-15.561-4.418c-4.644-1.276-8.565-2.799-11.858-3.852l-10.291-3.493m310.839-89.933s-11.708 5.454-30.004 11.724a373.75 373.75 0 01-68.829 16.609 381.832 381.832 0 01-70.85 3.517c-4.859-.03-9.259-.628-13.19-.837-3.92-.32-7.349-.503-10.154-.807l-8.801-1.128" stroke="#fff" stroke-opacity=".21" stroke-width="2" stroke-miterlimit="10"/><path d="M181.462 871.459s13.961 1.413 27.369 2.164c13.716.567 26.921.43 26.921.43l1.086 1.032a57.432 57.432 0 003.137 2.834l11.41 9.882c2.329 2.083 4.968 4.201 7.8 6.391l8.854 6.955c3.029 2.463 6.32 4.802 9.673 7.163l10.135 7.202c6.892 4.677 13.983 9.065 20.553 13.286 6.774 3.892 13.096 7.525 18.513 10.641l18.54 9.517.706 1.924c.475 1.196 1.157 2.899 1.973 4.945a641.993 641.993 0 006.368 15.136c1.234 2.78 2.468 5.561 3.622 8.165l3.38 6.958 3.418 6.807 6.851 2.696c4.322 1.821 10.702 3.873 18.304 6.463a471.386 471.386 0 00115.123 23.34c7.994.59 14.655 1.19 19.326 1.2l7.339.19m19.995-136.584l-3.837.106c-1.223.015-2.705.117-4.405.09l-5.716-.168c-4.188-.182-9.083-.075-14.292-.48-5.208-.442-10.776-.772-16.323-1.288l-16.225-2.057-14.033-2.502c-4.13-.622-7.476-1.588-9.854-2.092l-3.723-.861s-5.348-10.691-9.636-21.831c-2.178-5.527-4.241-10.844-5.639-15.021a9846.505 9846.505 0 00-2.255-6.959l-3.234-1.097c-2.081-.784-5.266-1.573-9.088-3.223a302.368 302.368 0 01-31.482-13.962c-25.62-12.518-57.365-34.597-83.804-62.191a320.095 320.095 0 01-35.114-43.564 305.744 305.744 0 01-23.753-42.543l-4.226-9.312a4461.647 4461.647 0 01-3.351-8.589c-2.276-5.328-3.707-10.174-5.072-14.096l-1.803-5.248c-.503-1.534-.814-2.872-1.131-3.938-.602-2.143-.925-3.286-.925-3.286l-4.561-1.69c-2.848-1.109-7.205-2.666-12.032-4.802a342.78 342.78 0 01-35.8-17.893 485.199 485.199 0 01-9.678-5.675c-3.125-1.937-6.116-3.912-9.075-5.862-5.875-3.911-11.443-7.758-16.148-11.178-9.095-6.886-15.209-11.926-15.209-11.926m515.351 295.369l6.146-2.063c3.834-1.523 9.316-3.685 15.893-6.299a372.694 372.694 0 0046.037-23.912 333.118 333.118 0 0041.943-30.632l7.327-6.326c2.179-1.896 3.915-3.71 5.431-5.119l4.71-4.482s2.849.415 7.115.864c4.205.4 9.885.873 15.693 1.238 5.807.365 11.729.636 16.04.621l7.334.019s1.005-1.173 2.785-3.208c.884-1.02 1.965-2.257 3.2-3.685 1.161-1.482 2.47-3.153 3.901-4.977 5.844-7.191 13.166-17.152 19.991-27.442 1.666-2.598 3.333-5.193 4.973-7.755 1.676-2.541 3.269-5.068 4.657-7.609 2.848-5.039 5.646-9.663 7.826-13.745l7.037-13.734s1.106-.263 2.928-.799c1.821-.536 4.457-1.34 7.6-2.286 3.162-.975 6.87-2.156 10.874-3.486 4.005-1.33 8.34-2.8 12.47-4.442 8.353-3.232 16.937-6.765 23.29-9.624l10.411-4.981 1.95-5.763c.595-1.843 1.433-4.045 2.178-6.638.746-2.593 1.57-5.527 2.48-8.71.91-3.182 1.887-6.654 2.929-10.314l2.701-11.657c2.043-8.052 3.494-16.788 5.044-25.506.867-4.345 1.375-8.742 1.92-13.065.544-4.323 1.089-8.573 1.612-12.69l1.759-22.612c.335-13.269.56-22.109.56-22.109m47.41 12.539l-.14 5.632-.18 6.464c-.19 2.49-.4 5.304-.63 8.374-.74 12.279-2.52 28.615-5.16 44.828-.72 4.042-1.44 8.085-2.15 12.06-.36 1.988-.72 3.959-1.07 5.91-.43 1.934-.86 3.841-1.29 5.722-1.77 7.498-3.23 14.542-4.87 20.482l-5.63 19.765s5.48 12.129 10.62 25.035c2.68 6.463 4.75 12.897 6.51 17.863 1.68 4.984 2.78 8.307 2.78 8.307l-1.08 2.735c-.72 1.783-1.71 4.416-3.22 7.667-1.47 3.264-3.26 7.229-5.32 11.776-1.03 2.269-2.13 4.68-3.29 7.232l-3.97 7.857c-2.85 5.439-5.725 11.442-9.19 17.559l-11.059 19.151-12.761 19.898c-4.594 6.607-9.361 13.25-14.117 19.899a511.553 511.553 0 01-59.774 66.972c-17.855 16.8-30.785 26.844-30.785 26.844" stroke="#fff" stroke-opacity=".21" stroke-width="2" stroke-miterlimit="10"/><path d="M902.938 559.506l-.972 12.656c-.168 3.812-.853 8.197-1.436 12.915s-1.135 9.768-2.157 14.739c-.966 4.972-1.633 10.01-2.736 14.629l-2.919 12.649c-.801 3.713-1.858 6.708-2.411 8.856l-.952 3.349s-4.115 1.833-10.195 4.355a477.025 477.025 0 01-22.83 8.162c-8.287 2.658-16.756 4.829-22.856 6.365-3.075.758-5.597 1.36-7.475 1.722l-2.88.579-1.771 3.881c-1.185 2.442-2.534 6.093-4.793 10.17-2.218 4.094-4.4 9.083-7.474 14.043l-4.454 7.796c-1.6 2.608-3.351 5.181-5.003 7.812-3.194 5.343-7.037 10.257-10.342 15.063-3.406 4.735-6.96 8.877-9.758 12.619l-10.154 11.809m-593.204 63.47l-7.49-10.53c-2.317-3.107-4.625-7.008-7.282-11.055-2.56-4.11-5.53-8.356-8.058-12.865-5.181-8.947-10.388-17.878-13.77-24.867l-4.267-8.341c-1.036-2.01-1.594-3.183-1.594-3.183s-4.819-1.874-12.151-4.939-17.275-7.351-26.84-12.276a687.897 687.897 0 01-14.302-7.389c-4.618-2.427-8.646-4.886-12.265-6.982a654.979 654.979 0 01-11.969-7.22s-.837-2.368-2.15-6.569l-4.994-17.527c-.508-1.814-1.038-3.702-1.589-5.662-.467-1.977-.947-4.018-1.44-6.124l-3.057-13.232c-1.128-4.577-1.982-9.366-2.848-14.237-.867-4.87-1.741-9.815-2.618-14.759a873.932 873.932 0 01-3.73-29.246c-.727-9.369-1.456-18.121-1.881-25.626l-.628-25.019M792.317 968.82l-6.496 3.729c-4.085 2.467-10.173 5.527-17.45 9.255a504.981 504.981 0 01-54.958 23.896c-10.349 3.44-20.586 7.25-30.486 9.85l-14.188 4.01-12.857 3.01-10.881 2.49c-3.254.67-6.112 1.13-8.458 1.57l-7.373 1.32-6.421 7.8c-3.909 4.66-9.311 10.54-14.912 16.58-5.602 6.04-11.426 12.03-15.918 16.25l-7.57 7.17-7.068.52c-4.495.43-10.919.55-18.632.76l-12.458.28c-4.417.06-9.076-.15-13.899-.23l-14.862-.41c-5.057-.3-10.196-.71-15.333-1.09-5.136-.44-10.283-.7-15.321-1.33l-14.799-1.86c-9.618-1.07-18.495-2.84-26.126-4.17l-10.388-1.92c-3.071-.69-5.749-1.3-7.956-1.8l-6.923-1.6M294.095 181.161l2.001-1.42c1.322-.896 3.167-2.345 5.712-3.919l9.061-5.812c3.494-2.258 7.43-4.811 11.914-7.286a421.973 421.973 0 0167.634-32.361 441.906 441.906 0 0172.217-20.193l13.755-2.452c4.106-.659 7.707-1.022 10.675-1.426 5.921-.753 9.307-1.181 9.307-1.181m174.777 20.317s1.493.359 4.202 1.315l11.796 3.988c5.124 1.603 11.16 4.053 18.11 6.799 7.017 2.582 14.638 6.197 23.024 9.962a430.446 430.446 0 0154.714 30.74 446.35 446.35 0 0156.466 44.511c36.255 33.147 65.096 73.487 82.928 105.56 2.362 3.943 4.356 7.872 6.249 11.609 1.894 3.737 3.722 7.264 5.423 10.589 3.205 6.741 5.799 12.718 8.032 17.587 2.234 4.869 3.596 8.877 4.714 11.518 1.052 2.68 1.615 4.095 1.615 4.095m-503.707-240.36l9.292-2.14c2.971-.618 6.517-1.653 10.696-2.327l13.975-2.493a422.306 422.306 0 0176.046-5.044 418.006 418.006 0 0175.677 8.901l13.832 3.182c4.122.937 7.627 2.106 10.556 2.883l9.175 2.604M193.295 330.412l1.821-3.119 5.513-8.589c2.366-3.706 5.194-8.237 8.835-13.163 3.567-4.978 7.448-10.703 12.232-16.538l7.262-9.247 8.242-9.507 4.294-4.963 4.627-4.883c3.134-3.276 6.331-6.619 9.59-10.031a410.313 410.313 0 0194.397-70.304c8.425-4.213 16.39-8.658 24.351-12.025 3.942-1.76 7.746-3.542 11.476-5.152l10.94-4.308c6.957-2.912 13.572-4.936 19.356-6.932 5.765-2.072 10.923-3.469 15.154-4.658l9.815-2.789c2.27-.628 3.509-.861 3.509-.861" stroke="#fff" stroke-opacity=".21" stroke-width="2" stroke-miterlimit="10"/><path d="M138.973 311.574l7.875-13.619c2.701-4.212 5.979-9.327 9.739-15.196 3.76-5.869 8.496-12.154 13.419-19.176 2.447-3.518 5.342-6.933 8.154-10.599 2.895-3.603 5.73-7.459 8.949-11.172 6.442-7.415 13.084-15.376 20.628-23 7.25-7.904 15.415-15.394 23.555-23.168 8.503-7.369 16.993-15.037 26.122-21.941 8.867-7.229 18.349-13.651 27.536-20.151 9.48-6.072 18.716-12.207 28.123-17.376 9.205-5.527 18.543-10.049 27.285-14.557 4.378-2.239 8.805-4.068 13-6.018 4.238-1.859 8.253-3.852 12.257-5.393 8.004-3.103 15.256-6.18 21.855-8.443l17.126-5.785c4.773-1.508 8.587-2.496 11.159-3.256l3.959-1.124m214.697 67.032l3.373.774c1.098.254 2.455.564 4.05.929l5.41 1.524c4.044 1.181 8.988 2.491 14.598 4.201 5.543 1.926 11.853 3.926 18.639 6.392a393.391 393.391 0 01169.586 122.711c4.462 5.683 8.637 10.829 11.926 15.696 3.338 4.825 6.505 8.862 8.688 12.47l7.148 11.145M452.963 83.617l10.688-1.916c3.41-.556 7.518-1.45 12.292-2.06l16.033-2.038a480.94 480.94 0 0186.627-1.62 473.371 473.371 0 0185.556 14.294l15.558 4.415c4.648 1.276 8.569 2.802 11.861 3.852l10.288 3.489m-310.849 89.933s11.709-5.453 30.008-11.724a373.71 373.71 0 0168.825-16.609 382.214 382.214 0 0170.853-3.517c4.859.03 9.259.631 13.187.849 3.921.32 7.349.503 10.157.804l8.799 1.131" stroke="#fff" stroke-opacity=".21" stroke-width="2" stroke-miterlimit="10"/><path d="M907.105 207.54s-13.959-1.412-27.367-2.164c-13.716-.565-26.923-.428-26.923-.428l-1.083-1.031a55.582 55.582 0 00-3.136-2.834l-11.413-9.882c-2.327-2.084-4.964-4.204-7.796-6.392l-8.855-6.957c-3.03-2.464-6.321-4.799-9.673-7.164l-10.134-7.202c-6.894-4.677-13.985-9.062-20.556-13.284-6.771-3.896-13.095-7.529-18.513-10.644-11.123-5.71-18.541-9.514-18.541-9.514s-.254-.702-.705-1.928l-1.967-4.947a636.08 636.08 0 00-6.367-15.135c-1.232-2.78-2.465-5.561-3.623-8.169a8292.966 8292.966 0 00-3.38-6.954l-3.416-6.81-6.855-2.693c-4.321-1.82-10.698-3.873-18.304-6.467A471.564 471.564 0 00583.387 53.6c-7.997-.59-14.658-1.188-19.329-1.193l-7.339-.194m-20.012 136.591l3.841-.104c1.22-.015 2.704-.117 4.405-.087l5.712.167c4.189.18 9.083.072 14.296.481 5.207.442 10.775.772 16.321 1.286l16.225 2.057 14.033 2.503c4.13.621 7.476 1.591 9.854 2.092l3.726.861s5.349 10.691 9.637 21.834c2.178 5.527 4.237 10.84 5.638 15.017l2.252 6.959 3.232 1.098c2.081.783 5.27 1.572 9.092 3.222a302.978 302.978 0 0131.482 13.962c25.616 12.519 57.361 34.599 83.8 62.192a320.148 320.148 0 0135.12 43.548 305.744 305.744 0 0123.753 42.543c1.474 3.244 2.885 6.365 4.229 9.312 1.182 3.026 2.299 5.889 3.351 8.589 2.275 5.332 3.706 10.177 5.072 14.1.67 1.965 1.28 3.718 1.803 5.244.523 1.526.816 2.873 1.131 3.941l.925 3.286 4.561 1.687c2.848 1.109 7.204 2.666 12.035 4.802a343.12 343.12 0 0135.799 17.888 505.146 505.146 0 019.678 5.671c3.125 1.938 6.119 3.916 9.075 5.863 5.874 3.911 11.442 7.758 16.147 11.181 9.095 6.883 15.209 11.923 15.209 11.923M432.785 216.571l-6.146 2.063-15.892 6.3a373.302 373.302 0 00-46.031 23.911 333.264 333.264 0 00-41.952 30.633 7809.415 7809.415 0 01-7.324 6.326c-2.179 1.881-3.902 3.711-5.428 5.112l-4.71 4.482s-2.849-.412-7.113-.865c-4.208-.4-9.886-.872-15.694-1.237-5.807-.366-11.728-.637-16.04-.622l-7.335-.015-2.785 3.208-3.197 3.684a8078.904 8078.904 0 00-3.903 4.975c-5.841 7.194-13.164 17.155-19.991 27.445-1.665 2.598-3.331 5.192-4.971 7.755-1.676 2.541-3.272 5.068-4.66 7.609-2.848 5.038-5.646 9.66-7.826 13.745l-7.038 13.734s-1.104.263-2.927.799l-7.6 2.288a562.58 562.58 0 00-10.875 3.485c-4.004 1.33-8.336 2.803-12.466 4.442-8.353 3.233-16.937 6.765-23.29 9.624l-10.411 4.982s-.708 2.095-1.953 5.766c-.592 1.843-1.43 4.045-2.179 6.635-.749 2.589-1.57 5.527-2.48 8.709-.909 3.183-1.886 6.653-2.925 10.315-.861 3.704-1.768 7.612-2.704 11.654-2.043 8.054-3.494 16.789-5.042 25.505-.868 4.345-1.372 8.742-1.92 13.065-.548 4.323-1.09 8.577-1.609 12.691-.647 8.272-1.243 15.995-1.759 22.611l-.56 22.109m-47.423-12.535l.145-5.629c.05-1.794.11-3.97.183-6.464.186-2.494.392-5.306.62-8.375.744-12.278 2.525-28.614 5.162-44.824.724-4.045 1.445-8.086 2.153-12.069.362-1.989.72-3.959 1.071-5.911.434-1.934.863-3.841 1.289-5.722 1.77-7.495 3.23-14.541 4.876-20.482l5.62-19.764s-5.471-12.127-10.609-25.034c-2.68-6.467-4.758-12.897-6.514-17.866l-2.785-8.308 1.086-2.735c.715-1.779 1.707-4.415 3.218-7.663 1.475-3.264 3.263-7.229 5.315-11.776 1.035-2.272 2.133-4.683 3.296-7.232l3.975-7.861c2.848-5.438 5.718-11.441 9.185-17.558 3.519-6.087 7.223-12.508 11.059-19.153 4.137-6.452 8.413-13.121 12.759-19.896 4.595-6.608 9.362-13.25 14.117-19.9a511.777 511.777 0 0159.777-66.972c17.855-16.799 30.782-26.84 30.782-26.84" stroke="#fff" stroke-opacity=".21" stroke-width="2" stroke-miterlimit="10"/><path d="M185.631 519.496l.968-12.659c.168-3.809.857-8.198 1.44-12.916s1.134-9.768 2.153-14.739c.967-4.971 1.634-10.009 2.736-14.629 1.071-4.624 2.066-8.946 2.922-12.646.801-3.716 1.857-6.711 2.408-8.855l.952-3.35s4.115-1.842 10.196-4.355a470.589 470.589 0 0122.831-8.161c8.287-2.659 16.755-4.833 22.856-6.365 3.072-.762 5.597-1.36 7.472-1.725l2.883-.58 1.768-3.881c1.185-2.442 2.533-6.09 4.79-10.168 2.219-4.095 4.4-9.087 7.475-14.046 1.444-2.526 2.937-5.139 4.457-7.793 1.6-2.608 3.351-5.193 5.003-7.816 3.194-5.339 7.038-10.257 10.34-15.062 3.407-4.735 6.961-8.877 9.759-12.617l10.154-11.81m593.211-63.476l7.486 10.53c2.321 3.108 4.625 7.008 7.282 11.054 2.564 4.111 5.529 8.356 8.061 12.865 5.178 8.948 10.389 17.882 13.767 24.868l4.267 8.341a117.323 117.323 0 011.594 3.182s4.819 1.875 12.151 4.94c7.332 3.065 17.275 7.351 26.839 12.279a648.29 648.29 0 0114.298 7.388c4.62 2.427 8.65 4.885 12.27 6.981 7.16 4.224 11.97 7.22 11.97 7.22s.84 2.37 2.15 6.569c1.21 4.231 2.93 10.273 5 17.527l1.58 5.663c.47 1.976.95 4.017 1.45 6.123l3.05 13.232c1.13 4.578 1.98 9.37 2.85 14.237.87 4.867 1.74 9.815 2.62 14.763a897.504 897.504 0 013.73 29.246c.72 9.369 1.45 18.117 1.88 25.626l.63 25.018M296.25 110.176l6.5-3.728c4.081-2.467 10.169-5.527 17.449-9.256a505.563 505.563 0 0154.959-23.896c10.351-3.442 20.589-7.247 30.485-9.848l14.189-4.007 12.858-3.015 10.881-2.49c3.254-.67 6.112-1.13 8.458-1.57l7.373-1.318 6.421-7.8c3.912-4.664 9.311-10.538 14.912-16.582 5.601-6.043 11.426-12.034 15.918-16.246l7.574-7.169 7.064-.523c4.499-.43 10.923-.556 18.632-.758l12.454-.287c4.417-.065 9.077.144 13.896.228l14.862.41c5.057.299 10.199.717 15.337 1.094 5.132.439 10.279.697 15.319 1.325 5.04.628 10.002 1.258 14.802 1.86 9.616 1.076 18.492 2.847 26.126 4.176l10.388 1.913c3.072.7 5.749 1.307 7.952 1.806l6.927 1.596" stroke="#fff" stroke-opacity=".21" stroke-width="2" stroke-miterlimit="10"/><path d="M916.664 208.116a4.834 4.834 0 01-5.779 4.741 4.84 4.84 0 01-3.8-3.798 4.837 4.837 0 018.163-4.361 4.835 4.835 0 011.416 3.418z" stroke="#fff" stroke-opacity=".21" stroke-width=".517" stroke-miterlimit="10"/><g filter="url(#filter0_d)"><path d="M35.187 531.294h-6.702a3.35 3.35 0 00-3.352 3.35v6.699c0 1.85 1.5 3.35 3.352 3.35h6.702a3.35 3.35 0 003.351-3.35v-6.699a3.35 3.35 0 00-3.351-3.35z" fill="#FDB51A"/></g><g filter="url(#filter1_d)"><path d="M179.286 804.306h-6.703c-1.85 0-3.351 1.5-3.351 3.35v6.7a3.35 3.35 0 003.351 3.349h6.703a3.35 3.35 0 003.351-3.349v-6.7c0-1.85-1.501-3.35-3.351-3.35z" fill="#FDB51A"/></g><g filter="url(#filter2_d)"><path d="M767.409 296.805h-20.106a3.35 3.35 0 00-3.352 3.349v20.1a3.35 3.35 0 003.352 3.349h20.106a3.35 3.35 0 003.351-3.349v-20.1a3.35 3.35 0 00-3.351-3.349z" fill="#FDB51A"/></g><g filter="url(#filter3_d)"><path d="M147.45 300.154h-13.405a3.35 3.35 0 00-3.351 3.35v13.4a3.35 3.35 0 003.351 3.349h13.405a3.35 3.35 0 003.351-3.349v-13.4c0-1.85-1.5-3.35-3.351-3.35z" fill="#FDB51A"/></g><g filter="url(#filter4_d)"><path d="M499.319 909.826h-6.703c-1.85 0-3.351 1.5-3.351 3.35v6.7a3.35 3.35 0 003.351 3.349h6.703a3.35 3.35 0 003.351-3.349v-6.7c0-1.85-1.501-3.35-3.351-3.35z" fill="#FDB51A"/></g><g filter="url(#filter5_d)"><path d="M70.374 524.594H63.67a3.35 3.35 0 00-3.35 3.35v6.7a3.35 3.35 0 003.35 3.349h6.703a3.35 3.35 0 003.35-3.349v-6.7c0-1.85-1.5-3.35-3.35-3.35z" fill="#fff"/></g><g filter="url(#filter6_d)"><path d="M226.201 132.662h-6.702a3.35 3.35 0 00-3.351 3.35v6.7c0 1.85 1.5 3.35 3.351 3.35h6.702c1.851 0 3.352-1.5 3.352-3.35v-6.7c0-1.85-1.501-3.35-3.352-3.35z" fill="#fff"/></g><g filter="url(#filter7_d)"><path d="M457.43 77.39h-6.703a3.35 3.35 0 00-3.351 3.35v6.7a3.35 3.35 0 003.351 3.35h6.703a3.35 3.35 0 003.351-3.35v-6.7a3.35 3.35 0 00-3.351-3.35z" fill="#fff"/></g><g filter="url(#filter8_d)"><path d="M658.497 856.229h-6.702a3.35 3.35 0 00-3.351 3.349v6.7c0 1.85 1.5 3.35 3.351 3.35h6.702c1.851 0 3.352-1.5 3.352-3.35v-6.7a3.35 3.35 0 00-3.352-3.349z" fill="#fff"/></g><g filter="url(#filter9_d)"><path d="M328.411 744.009h-20.107a3.35 3.35 0 00-3.351 3.35v20.099c0 1.85 1.5 3.35 3.351 3.35h20.107a3.35 3.35 0 003.351-3.35v-20.099c0-1.85-1.5-3.35-3.351-3.35z" fill="#fff"/></g><g filter="url(#filter10_d)"><path d="M152.476 554.743H132.37a3.35 3.35 0 00-3.351 3.349v20.1a3.35 3.35 0 003.351 3.349h20.106a3.35 3.35 0 003.352-3.349v-20.1a3.35 3.35 0 00-3.352-3.349z" fill="#fff"/></g><defs><filter id="filter0_d" x="15.133" y="521.294" width="33.404" height="33.399" filterUnits="userSpaceOnUse" color-interpolation-filters="sRGB"><feFlood flood-opacity="0" result="BackgroundImageFix"/><feColorMatrix in="SourceAlpha" values="0 0 0 0 0 0 0 0 0 0 0 0 0 0 0 0 0 0 127 0"/><feOffset/><feGaussianBlur stdDeviation="5"/><feColorMatrix values="0 0 0 0 0.992157 0 0 0 0 0.713726 0 0 0 0 0.105882 0 0 0 1 0"/><feBlend in2="BackgroundImageFix" result="effect1_dropShadow"/><feBlend in="SourceGraphic" in2="effect1_dropShadow" result="shape"/></filter><filter id="filter1_d" x="159.232" y="794.306" width="33.404" height="33.399" filterUnits="userSpaceOnUse" color-interpolation-filters="sRGB"><feFlood flood-opacity="0" result="BackgroundImageFix"/><feColorMatrix in="SourceAlpha" values="0 0 0 0 0 0 0 0 0 0 0 0 0 0 0 0 0 0 127 0"/><feOffset/><feGaussianBlur stdDeviation="5"/><feColorMatrix values="0 0 0 0 0.992157 0 0 0 0 0.713726 0 0 0 0 0.105882 0 0 0 1 0"/><feBlend in2="BackgroundImageFix" result="effect1_dropShadow"/><feBlend in="SourceGraphic" in2="effect1_dropShadow" result="shape"/></filter><filter id="filter2_d" x="728.951" y="281.805" width="56.809" height="56.799" filterUnits="userSpaceOnUse" color-interpolation-filters="sRGB"><feFlood flood-opacity="0" result="BackgroundImageFix"/><feColorMatrix in="SourceAlpha" values="0 0 0 0 0 0 0 0 0 0 0 0 0 0 0 0 0 0 127 0"/><feOffset/><feGaussianBlur stdDeviation="7.5"/><feColorMatrix values="0 0 0 0 0.992157 0 0 0 0 0.713726 0 0 0 0 0.105882 0 0 0 1 0"/><feBlend in2="BackgroundImageFix" result="effect1_dropShadow"/><feBlend in="SourceGraphic" in2="effect1_dropShadow" result="shape"/></filter><filter id="filter3_d" x="115.694" y="285.154" width="50.107" height="50.099" filterUnits="userSpaceOnUse" color-interpolation-filters="sRGB"><feFlood flood-opacity="0" result="BackgroundImageFix"/><feColorMatrix in="SourceAlpha" values="0 0 0 0 0 0 0 0 0 0 0 0 0 0 0 0 0 0 127 0"/><feOffset/><feGaussianBlur stdDeviation="7.5"/><feColorMatrix values="0 0 0 0 0.992157 0 0 0 0 0.713726 0 0 0 0 0.105882 0 0 0 1 0"/><feBlend in2="BackgroundImageFix" result="effect1_dropShadow"/><feBlend in="SourceGraphic" in2="effect1_dropShadow" result="shape"/></filter><filter id="filter4_d" x="479.265" y="899.826" width="33.404" height="33.399" filterUnits="userSpaceOnUse" color-interpolation-filters="sRGB"><feFlood flood-opacity="0" result="BackgroundImageFix"/><feColorMatrix in="SourceAlpha" values="0 0 0 0 0 0 0 0 0 0 0 0 0 0 0 0 0 0 127 0"/><feOffset/><feGaussianBlur stdDeviation="5"/><feColorMatrix values="0 0 0 0 0.992157 0 0 0 0 0.713726 0 0 0 0 0.105882 0 0 0 1 0"/><feBlend in2="BackgroundImageFix" result="effect1_dropShadow"/><feBlend in="SourceGraphic" in2="effect1_dropShadow" result="shape"/></filter><filter id="filter5_d" x="50.32" y="514.594" width="33.404" height="33.399" filterUnits="userSpaceOnUse" color-interpolation-filters="sRGB"><feFlood flood-opacity="0" result="BackgroundImageFix"/><feColorMatrix in="SourceAlpha" values="0 0 0 0 0 0 0 0 0 0 0 0 0 0 0 0 0 0 127 0"/><feOffset/><feGaussianBlur stdDeviation="5"/><feColorMatrix values="0 0 0 0 1 0 0 0 0 1 0 0 0 0 1 0 0 0 1 0"/><feBlend in2="BackgroundImageFix" result="effect1_dropShadow"/><feBlend in="SourceGraphic" in2="effect1_dropShadow" result="shape"/></filter><filter id="filter6_d" x="206.148" y="122.662" width="33.404" height="33.399" filterUnits="userSpaceOnUse" color-interpolation-filters="sRGB"><feFlood flood-opacity="0" result="BackgroundImageFix"/><feColorMatrix in="SourceAlpha" values="0 0 0 0 0 0 0 0 0 0 0 0 0 0 0 0 0 0 127 0"/><feOffset/><feGaussianBlur stdDeviation="5"/><feColorMatrix values="0 0 0 0 1 0 0 0 0 1 0 0 0 0 1 0 0 0 1 0"/><feBlend in2="BackgroundImageFix" result="effect1_dropShadow"/><feBlend in="SourceGraphic" in2="effect1_dropShadow" result="shape"/></filter><filter id="filter7_d" x="437.376" y="67.39" width="33.404" height="33.399" filterUnits="userSpaceOnUse" color-interpolation-filters="sRGB"><feFlood flood-opacity="0" result="BackgroundImageFix"/><feColorMatrix in="SourceAlpha" values="0 0 0 0 0 0 0 0 0 0 0 0 0 0 0 0 0 0 127 0"/><feOffset/><feGaussianBlur stdDeviation="5"/><feColorMatrix values="0 0 0 0 1 0 0 0 0 1 0 0 0 0 1 0 0 0 1 0"/><feBlend in2="BackgroundImageFix" result="effect1_dropShadow"/><feBlend in="SourceGraphic" in2="effect1_dropShadow" result="shape"/></filter><filter id="filter8_d" x="638.444" y="846.229" width="33.404" height="33.399" filterUnits="userSpaceOnUse" color-interpolation-filters="sRGB"><feFlood flood-opacity="0" result="BackgroundImageFix"/><feColorMatrix in="SourceAlpha" values="0 0 0 0 0 0 0 0 0 0 0 0 0 0 0 0 0 0 127 0"/><feOffset/><feGaussianBlur stdDeviation="5"/><feColorMatrix values="0 0 0 0 1 0 0 0 0 1 0 0 0 0 1 0 0 0 1 0"/><feBlend in2="BackgroundImageFix" result="effect1_dropShadow"/><feBlend in="SourceGraphic" in2="effect1_dropShadow" result="shape"/></filter><filter id="filter9_d" x="289.953" y="729.009" width="56.809" height="56.799" filterUnits="userSpaceOnUse" color-interpolation-filters="sRGB"><feFlood flood-opacity="0" result="BackgroundImageFix"/><feColorMatrix in="SourceAlpha" values="0 0 0 0 0 0 0 0 0 0 0 0 0 0 0 0 0 0 127 0"/><feOffset/><feGaussianBlur stdDeviation="7.5"/><feColorMatrix values="0 0 0 0 1 0 0 0 0 1 0 0 0 0 1 0 0 0 1 0"/><feBlend in2="BackgroundImageFix" result="effect1_dropShadow"/><feBlend in="SourceGraphic" in2="effect1_dropShadow" result="shape"/></filter><filter id="filter10_d" x="114.019" y="539.743" width="56.809" height="56.799" filterUnits="userSpaceOnUse" color-interpolation-filters="sRGB"><feFlood flood-opacity="0" result="BackgroundImageFix"/><feColorMatrix in="SourceAlpha" values="0 0 0 0 0 0 0 0 0 0 0 0 0 0 0 0 0 0 127 0"/><feOffset/><feGaussianBlur stdDeviation="7.5"/><feColorMatrix values="0 0 0 0 1 0 0 0 0 1 0 0 0 0 1 0 0 0 1 0"/><feBlend in2="BackgroundImageFix" result="effect1_dropShadow"/><feBlend in="SourceGraphic" in2="effect1_dropShadow" result="shape"/></filter></defs></svg>