<svg width="985" height="840" fill="none" xmlns="http://www.w3.org/2000/svg"><g filter="url(#filter0_d)"><path d="M354.609 61.21h-4.959a2.48 2.48 0 00-2.48 2.48v4.96a2.48 2.48 0 002.48 2.48h4.959a2.48 2.48 0 002.48-2.48v-4.96a2.48 2.48 0 00-2.48-2.48z" fill="#FDB51A"/></g><g filter="url(#filter1_d)"><path d="M417.844 258.387h-7.44a2.48 2.48 0 00-2.479 2.481v7.44a2.48 2.48 0 002.479 2.48h7.44a2.48 2.48 0 002.479-2.48v-7.44a2.48 2.48 0 00-2.479-2.481z" fill="#fff"/></g><g filter="url(#filter2_d)"><path d="M727.817 401h-6.2a1.24 1.24 0 00-1.24 1.24v6.201c0 .685.555 1.24 1.24 1.24h6.2a1.24 1.24 0 001.24-1.24v-6.201c0-.684-.556-1.24-1.24-1.24z" fill="#fff"/></g><g filter="url(#filter3_d)"><path d="M810.889 95.933h-4.959a1.24 1.24 0 00-1.24 1.24v4.96c0 .685.555 1.24 1.24 1.24h4.959a1.24 1.24 0 001.24-1.24v-4.96a1.24 1.24 0 00-1.24-1.24z" fill="#fff"/></g><path d="M982.009.816c-29.122 106.485-90.651 68.474-136.673 121.942-46.022 53.467-180.193 57.847-243.218 60.543-63.025 2.696-87.674 80.217-101.513 121.202-13.838 40.986-52.348 77.039-72.805 104.407-20.457 27.368-50.815 48.564-94.414 144.451-43.6 95.886-121.418 83.923-160.282 167.043-38.865 83.119-21.894 12.698-21.894 12.698" stroke="#333B60" stroke-width="5"/><g filter="url(#filter4_d)"><path d="M539.353 348.916H367.008c-10.272 0-18.598 8.328-18.598 18.601v172.376c0 10.273 8.326 18.602 18.598 18.602h172.345c10.272 0 18.598-8.329 18.598-18.602V367.517c0-10.273-8.326-18.601-18.598-18.601z" fill="url(#paint0_linear)"/></g><path d="M453.629 453.257l36.919-17.465-28.694-48.028c-3.208-5.375-13.298-5.375-16.506 0l-28.638 48.028 36.919 17.465z" fill="url(#paint1_linear)"/><path d="M458.145 469.745a10.944 10.944 0 01-9.02 0l-38.989-18.126c.179.358.124.717.297 1.075l34.835 57.347a10.26 10.26 0 008.426 4.403 10.26 10.26 0 008.427-4.403l34.835-57.347c.126-.35.225-.709.296-1.075l-39.107 18.126z" fill="url(#paint2_linear)"/><g filter="url(#filter5_d)"><path d="M565.391 218.704H433.962c-10.271 0-18.598 8.328-18.598 18.601v131.452c0 10.274 8.327 18.602 18.598 18.602h131.429c10.271 0 18.598-8.328 18.598-18.602V237.305c0-10.273-8.327-18.601-18.598-18.601z" fill="url(#paint3_linear)"/></g><path d="M505.696 304.851l18.971-5.788-2.578-12.897-12.325 4.464 10.186-35.655-22.613-3.613-12.047 42.164-28.938 5.788 2.578 12.897 22.297-4.465-12.58 44.038h67.878v-13.145h-40.48l9.651-33.788z" fill="url(#paint4_linear)"/><g filter="url(#filter6_d)"><path d="M350.889 479.127h-21.078c-10.271 0-18.598 8.329-18.598 18.602v21.082c0 10.273 8.327 18.602 18.598 18.602h21.078c10.272 0 18.599-8.329 18.599-18.602v-21.082c0-10.273-8.327-18.602-18.599-18.602z" fill="url(#paint5_linear)"/></g><path d="M355.473 507.401v-3.063h-5.024l1.88-5.642-2.909-.967-2.198 6.61h-4.546l-1.225-4.106h-2.579l-1.231 4.106h-4.545l-2.202-6.61-2.909.967 1.883 5.642h-5.016v3.063h6.042l1.019 3.063h-7.067v3.063h8.082l1.03 3.089.647 1.058 2.242-.034 3.071-10.238h.488l2.757 9.166.612 1.071 2.242.034 1.377-4.152h8.084v-3.057h-7.067l1.019-3.063h6.043zm-19.98 4.116l-1.372-4.116h2.604l-1.232 4.116zm9.34 0l-1.24-4.116h2.604l-1.364 4.116z" fill="url(#paint6_linear)"/><g filter="url(#filter7_d)"><path d="M721.617 86.012H689.38c-10.272 0-18.598 8.328-18.598 18.601v32.243c0 10.274 8.326 18.602 18.598 18.602h32.237c10.272 0 18.599-8.328 18.599-18.602v-32.243c0-10.273-8.327-18.601-18.599-18.601z" fill="url(#paint7_linear)"/></g><g filter="url(#filter8_d)"><path d="M850.566 241.026h-61.995c-10.271 0-18.598 8.328-18.598 18.601v62.006c0 10.274 8.327 18.602 18.598 18.602h61.995c10.272 0 18.598-8.328 18.598-18.602v-62.006c0-10.273-8.326-18.601-18.598-18.601z" fill="url(#paint8_linear)"/></g><g filter="url(#filter9_d)"><path d="M197.143 661.424H117.79c-10.272 0-18.599 8.328-18.599 18.602v79.367c0 10.273 8.327 18.602 18.599 18.602h79.353c10.271 0 18.598-8.329 18.598-18.602v-79.367c0-10.274-8.327-18.602-18.598-18.602z" fill="url(#paint9_linear)"/></g><g filter="url(#filter10_d)"><path d="M669.542 330.314h-116.55c-10.272 0-18.599 8.328-18.599 18.602v116.57c0 10.274 8.327 18.602 18.599 18.602h116.55c10.271 0 18.598-8.328 18.598-18.602v-116.57c0-10.274-8.327-18.602-18.598-18.602z" fill="url(#paint10_linear)"/></g><path d="M629.315 383.47c2.644 5.212 2.08 9.843-1.691 13.892a15.162 15.162 0 019.945 1.468c2.665 1.545 4.591 4.467 5.776 8.767.575 2.004.788 4.095.628 6.174a13.284 13.284 0 01-1.482 5.137 16.582 16.582 0 01-3.527 4.357 30.717 30.717 0 01-5.08 3.721 62.91 62.91 0 01-6.541 3.281l4.38 11.411-7.205 2.766-4.31-11.23a283.462 283.462 0 01-5.717 2.143l4.328 11.275-7.196 2.763-4.38-11.412c-.561.215-1.404.531-2.531.947a435.55 435.55 0 00-2.581.959l-9.345 3.587-1.693-8.742 5.185-1.991a2.63 2.63 0 001.623-1.271 2.641 2.641 0 00.211-2.051l-6.899-17.978.747-.287c-.26.061-.516.142-.765.242l-4.928-12.84c-1.183-1.872-2.958-2.354-5.325-1.445l-5.186 1.991-2.815-7.336 9.922-3.758c1.994-.765 3.498-1.36 4.515-1.785l-4.327-11.273 7.196-2.762 4.24 11.049a287.61 287.61 0 015.666-2.277l-4.207-10.96 7.198-2.764 4.326 11.273a46.467 46.467 0 016.928-1.505 23.353 23.353 0 016.052-.014c1.872.225 3.658.916 5.194 2.01a11.878 11.878 0 013.671 4.468zm-.688 28.237a6.175 6.175 0 00-1.799-2.595 7.262 7.262 0 00-2.518-1.394 9.664 9.664 0 00-3.211-.333 25.243 25.243 0 00-3.382.351 30.796 30.796 0 00-3.612.925c-1.405.437-2.497.804-3.275 1.103-.779.299-1.776.699-2.992 1.201-1.219.502-1.953.801-2.202.897l5.803 15.12c.249-.096.828-.309 1.738-.642.909-.332 1.66-.612 2.252-.839a68.017 68.017 0 002.45-1.018 53.983 53.983 0 002.664-1.229 41.15 41.15 0 002.516-1.401 19.973 19.973 0 002.353-1.622 17.471 17.471 0 001.859-1.791 6.922 6.922 0 001.33-2.05 6.762 6.762 0 00.458-2.23 6.106 6.106 0 00-.432-2.453zm-11.491-20.02a6.078 6.078 0 00-1.583-2.394 6.712 6.712 0 00-2.146-1.332 7.57 7.57 0 00-2.724-.391c-.956.006-1.911.089-2.854.248a28.811 28.811 0 00-3.01.745c-1.171.347-2.089.655-2.754.925l-2.506 1.014c-1.007.403-1.619.646-1.837.73l5.273 13.738c.154-.059.694-.258 1.621-.597.926-.339 1.65-.617 2.172-.834.524-.218 1.291-.547 2.302-.986.85-.359 1.677-.771 2.475-1.234a52.052 52.052 0 002.218-1.416 8.727 8.727 0 001.949-1.698c.472-.587.895-1.213 1.264-1.871a4.605 4.605 0 00.601-2.207 6.416 6.416 0 00-.461-2.44z" fill="url(#paint11_linear)"/><path d="M150.322 697.596a13.492 13.492 0 002.964 12.503l.24 1.014a3.495 3.495 0 01-.895 3.232 3.494 3.494 0 01-3.205.986l-1.154-.236a13.11 13.11 0 00-9.869-2.783 13.593 13.593 0 00-8.831 22.282 13.588 13.588 0 0023.434-5.018 3.496 3.496 0 015.255 1.414 13.55 13.55 0 002.268 11.344 13.689 13.689 0 0010.569 5.521 13.462 13.462 0 0012.339-7.125 13.682 13.682 0 00.505-11.916 13.532 13.532 0 00-8.956-7.715 13.292 13.292 0 00-5.385-.297l-1.116-.371a3.487 3.487 0 01-2.282-2.456 3.487 3.487 0 01.84-3.246l.715-.758a13.584 13.584 0 005.799-3.808 13.582 13.582 0 002.87-13.106 13.593 13.593 0 00-9.78-9.181 13.591 13.591 0 00-12.897 3.692 13.594 13.594 0 00-3.432 6.03l.004-.002z" fill="url(#paint12_linear)"/><path d="M823.989 259.689h-8.839v8.841h-13.258v8.841h23.22l-23.22 27.094v8.267h13.258v8.839h8.839v-8.841h13.258v-8.84h-23.222l23.221-27.096v-8.264h-13.257v-8.841z" fill="url(#paint13_linear)"/><path d="M720.095 128.7l4.126-14.164.078-.372a4.77 4.77 0 00-4.733-5.357h-23.525v4.77h23.493l-4.053 13.938-.088.372h-24.12v4.769h24.121a4.77 4.77 0 004.701-3.956z" fill="url(#paint14_linear)"/><path d="M700.539 118.255H686.9v4.96h13.639v-4.96z" fill="url(#paint15_linear)"/><g filter="url(#filter11_d)"><path d="M681.941 210.023h-11.159a2.48 2.48 0 00-2.48 2.48v11.161a2.48 2.48 0 002.48 2.48h11.159a2.48 2.48 0 002.479-2.48v-11.161a2.48 2.48 0 00-2.479-2.48z" fill="#FDB51A"/></g><g filter="url(#filter12_d)"><path d="M337.251 632.901h-11.159a2.48 2.48 0 00-2.48 2.481v11.161a2.48 2.48 0 002.48 2.48h11.159a2.48 2.48 0 002.479-2.48v-11.161a2.48 2.48 0 00-2.479-2.481z" fill="#FDB51A"/></g><g filter="url(#filter13_d)"><path d="M752.614 585.777h-11.159a2.48 2.48 0 00-2.479 2.48v11.161a2.48 2.48 0 002.479 2.481h11.159a2.48 2.48 0 002.48-2.481v-11.161a2.48 2.48 0 00-2.48-2.48z" fill="#FDB51A"/></g><g filter="url(#filter14_d)"><path d="M556.712 650.263h-3.72a1.24 1.24 0 00-1.24 1.24v3.72a1.24 1.24 0 001.24 1.241h3.72a1.24 1.24 0 001.239-1.241v-3.72a1.24 1.24 0 00-1.239-1.24z" fill="#FDB51A"/></g><g filter="url(#filter15_d)"><path d="M862.965 69.89h-3.72a1.24 1.24 0 00-1.24 1.24v3.72c0 .686.555 1.24 1.24 1.24h3.72a1.24 1.24 0 001.24-1.24v-3.72a1.24 1.24 0 00-1.24-1.24z" fill="#FDB51A"/></g><g filter="url(#filter16_d)"><path d="M643.504 515.091h-3.72a1.24 1.24 0 00-1.24 1.24v3.72c0 .685.555 1.24 1.24 1.24h3.72a1.24 1.24 0 001.24-1.24v-3.72a1.24 1.24 0 00-1.24-1.24z" fill="#fff"/></g><g filter="url(#filter17_d)"><path d="M43.396 766.833h-4.96a1.24 1.24 0 00-1.24 1.241v4.96c0 .685.556 1.24 1.24 1.24h4.96a1.24 1.24 0 001.24-1.24v-4.96a1.24 1.24 0 00-1.24-1.241z" fill="#fff"/></g><defs><filter id="filter0_d" x="327.17" y="41.209" width="49.919" height="49.921" filterUnits="userSpaceOnUse" color-interpolation-filters="sRGB"><feFlood flood-opacity="0" result="BackgroundImageFix"/><feColorMatrix in="SourceAlpha" values="0 0 0 0 0 0 0 0 0 0 0 0 0 0 0 0 0 0 127 0"/><feOffset/><feGaussianBlur stdDeviation="10"/><feColorMatrix values="0 0 0 0 0.992157 0 0 0 0 0.713726 0 0 0 0 0.105882 0 0 0 1 0"/><feBlend in2="BackgroundImageFix" result="effect1_dropShadow"/><feBlend in="SourceGraphic" in2="effect1_dropShadow" result="shape"/></filter><filter id="filter1_d" x="387.925" y="238.387" width="52.399" height="52.401" filterUnits="userSpaceOnUse" color-interpolation-filters="sRGB"><feFlood flood-opacity="0" result="BackgroundImageFix"/><feColorMatrix in="SourceAlpha" values="0 0 0 0 0 0 0 0 0 0 0 0 0 0 0 0 0 0 127 0"/><feOffset/><feGaussianBlur stdDeviation="10"/><feColorMatrix values="0 0 0 0 1 0 0 0 0 1 0 0 0 0 1 0 0 0 1 0"/><feBlend in2="BackgroundImageFix" result="effect1_dropShadow"/><feBlend in="SourceGraphic" in2="effect1_dropShadow" result="shape"/></filter><filter id="filter2_d" x="700.377" y="381" width="48.679" height="48.681" filterUnits="userSpaceOnUse" color-interpolation-filters="sRGB"><feFlood flood-opacity="0" result="BackgroundImageFix"/><feColorMatrix in="SourceAlpha" values="0 0 0 0 0 0 0 0 0 0 0 0 0 0 0 0 0 0 127 0"/><feOffset/><feGaussianBlur stdDeviation="10"/><feColorMatrix values="0 0 0 0 1 0 0 0 0 1 0 0 0 0 1 0 0 0 1 0"/><feBlend in2="BackgroundImageFix" result="effect1_dropShadow"/><feBlend in="SourceGraphic" in2="effect1_dropShadow" result="shape"/></filter><filter id="filter3_d" x="784.69" y="75.933" width="47.439" height="47.441" filterUnits="userSpaceOnUse" color-interpolation-filters="sRGB"><feFlood flood-opacity="0" result="BackgroundImageFix"/><feColorMatrix in="SourceAlpha" values="0 0 0 0 0 0 0 0 0 0 0 0 0 0 0 0 0 0 127 0"/><feOffset/><feGaussianBlur stdDeviation="10"/><feColorMatrix values="0 0 0 0 1 0 0 0 0 1 0 0 0 0 1 0 0 0 1 0"/><feBlend in2="BackgroundImageFix" result="effect1_dropShadow"/><feBlend in="SourceGraphic" in2="effect1_dropShadow" result="shape"/></filter><filter id="filter4_d" x="308.41" y="338.916" width="269.542" height="269.579" filterUnits="userSpaceOnUse" color-interpolation-filters="sRGB"><feFlood flood-opacity="0" result="BackgroundImageFix"/><feColorMatrix in="SourceAlpha" values="0 0 0 0 0 0 0 0 0 0 0 0 0 0 0 0 0 0 127 0"/><feOffset dx="-10" dy="20"/><feGaussianBlur stdDeviation="15"/><feColorMatrix values="0 0 0 0 0 0 0 0 0 0 0 0 0 0 0 0 0 0 0.345 0"/><feBlend in2="BackgroundImageFix" result="effect1_dropShadow"/><feBlend in="SourceGraphic" in2="effect1_dropShadow" result="shape"/></filter><filter id="filter5_d" x="380.364" y="198.704" width="228.625" height="228.655" filterUnits="userSpaceOnUse" color-interpolation-filters="sRGB"><feFlood flood-opacity="0" result="BackgroundImageFix"/><feColorMatrix in="SourceAlpha" values="0 0 0 0 0 0 0 0 0 0 0 0 0 0 0 0 0 0 127 0"/><feOffset dx="-5" dy="10"/><feGaussianBlur stdDeviation="15"/><feColorMatrix values="0 0 0 0 0 0 0 0 0 0 0 0 0 0 0 0 0 0 0.314 0"/><feBlend in2="BackgroundImageFix" result="effect1_dropShadow"/><feBlend in="SourceGraphic" in2="effect1_dropShadow" result="shape"/></filter><filter id="filter6_d" x="278.213" y="454.127" width="118.275" height="118.285" filterUnits="userSpaceOnUse" color-interpolation-filters="sRGB"><feFlood flood-opacity="0" result="BackgroundImageFix"/><feColorMatrix in="SourceAlpha" values="0 0 0 0 0 0 0 0 0 0 0 0 0 0 0 0 0 0 127 0"/><feOffset dx="-3" dy="5"/><feGaussianBlur stdDeviation="15"/><feColorMatrix values="0 0 0 0 0 0 0 0 0 0 0 0 0 0 0 0 0 0 0.365 0"/><feBlend in2="BackgroundImageFix" result="effect1_dropShadow"/><feBlend in="SourceGraphic" in2="effect1_dropShadow" result="shape"/></filter><filter id="filter7_d" x="637.782" y="61.012" width="129.434" height="129.446" filterUnits="userSpaceOnUse" color-interpolation-filters="sRGB"><feFlood flood-opacity="0" result="BackgroundImageFix"/><feColorMatrix in="SourceAlpha" values="0 0 0 0 0 0 0 0 0 0 0 0 0 0 0 0 0 0 127 0"/><feOffset dx="-3" dy="5"/><feGaussianBlur stdDeviation="15"/><feColorMatrix values="0 0 0 0 0 0 0 0 0 0 0 0 0 0 0 0 0 0 0.365 0"/><feBlend in2="BackgroundImageFix" result="effect1_dropShadow"/><feBlend in="SourceGraphic" in2="effect1_dropShadow" result="shape"/></filter><filter id="filter8_d" x="736.973" y="216.026" width="159.191" height="159.209" filterUnits="userSpaceOnUse" color-interpolation-filters="sRGB"><feFlood flood-opacity="0" result="BackgroundImageFix"/><feColorMatrix in="SourceAlpha" values="0 0 0 0 0 0 0 0 0 0 0 0 0 0 0 0 0 0 127 0"/><feOffset dx="-3" dy="5"/><feGaussianBlur stdDeviation="15"/><feColorMatrix values="0 0 0 0 0 0 0 0 0 0 0 0 0 0 0 0 0 0 0.365 0"/><feBlend in2="BackgroundImageFix" result="effect1_dropShadow"/><feBlend in="SourceGraphic" in2="effect1_dropShadow" result="shape"/></filter><filter id="filter9_d" x="66.191" y="636.424" width="176.55" height="176.571" filterUnits="userSpaceOnUse" color-interpolation-filters="sRGB"><feFlood flood-opacity="0" result="BackgroundImageFix"/><feColorMatrix in="SourceAlpha" values="0 0 0 0 0 0 0 0 0 0 0 0 0 0 0 0 0 0 127 0"/><feOffset dx="-3" dy="5"/><feGaussianBlur stdDeviation="15"/><feColorMatrix values="0 0 0 0 0 0 0 0 0 0 0 0 0 0 0 0 0 0 0.365 0"/><feBlend in2="BackgroundImageFix" result="effect1_dropShadow"/><feBlend in="SourceGraphic" in2="effect1_dropShadow" result="shape"/></filter><filter id="filter10_d" x="501.393" y="305.314" width="213.747" height="213.774" filterUnits="userSpaceOnUse" color-interpolation-filters="sRGB"><feFlood flood-opacity="0" result="BackgroundImageFix"/><feColorMatrix in="SourceAlpha" values="0 0 0 0 0 0 0 0 0 0 0 0 0 0 0 0 0 0 127 0"/><feOffset dx="-3" dy="5"/><feGaussianBlur stdDeviation="15"/><feColorMatrix values="0 0 0 0 0 0 0 0 0 0 0 0 0 0 0 0 0 0 0.365 0"/><feBlend in2="BackgroundImageFix" result="effect1_dropShadow"/><feBlend in="SourceGraphic" in2="effect1_dropShadow" result="shape"/></filter><filter id="filter11_d" x="648.302" y="190.023" width="56.119" height="56.121" filterUnits="userSpaceOnUse" color-interpolation-filters="sRGB"><feFlood flood-opacity="0" result="BackgroundImageFix"/><feColorMatrix in="SourceAlpha" values="0 0 0 0 0 0 0 0 0 0 0 0 0 0 0 0 0 0 127 0"/><feOffset/><feGaussianBlur stdDeviation="10"/><feColorMatrix values="0 0 0 0 0.992157 0 0 0 0 0.713726 0 0 0 0 0.105882 0 0 0 1 0"/><feBlend in2="BackgroundImageFix" result="effect1_dropShadow"/><feBlend in="SourceGraphic" in2="effect1_dropShadow" result="shape"/></filter><filter id="filter12_d" x="303.612" y="612.901" width="56.119" height="56.121" filterUnits="userSpaceOnUse" color-interpolation-filters="sRGB"><feFlood flood-opacity="0" result="BackgroundImageFix"/><feColorMatrix in="SourceAlpha" values="0 0 0 0 0 0 0 0 0 0 0 0 0 0 0 0 0 0 127 0"/><feOffset/><feGaussianBlur stdDeviation="10"/><feColorMatrix values="0 0 0 0 0.992157 0 0 0 0 0.713726 0 0 0 0 0.105882 0 0 0 1 0"/><feBlend in2="BackgroundImageFix" result="effect1_dropShadow"/><feBlend in="SourceGraphic" in2="effect1_dropShadow" result="shape"/></filter><filter id="filter13_d" x="718.976" y="565.777" width="56.119" height="56.121" filterUnits="userSpaceOnUse" color-interpolation-filters="sRGB"><feFlood flood-opacity="0" result="BackgroundImageFix"/><feColorMatrix in="SourceAlpha" values="0 0 0 0 0 0 0 0 0 0 0 0 0 0 0 0 0 0 127 0"/><feOffset/><feGaussianBlur stdDeviation="10"/><feColorMatrix values="0 0 0 0 0.992157 0 0 0 0 0.713726 0 0 0 0 0.105882 0 0 0 1 0"/><feBlend in2="BackgroundImageFix" result="effect1_dropShadow"/><feBlend in="SourceGraphic" in2="effect1_dropShadow" result="shape"/></filter><filter id="filter14_d" x="531.752" y="630.263" width="46.2" height="46.201" filterUnits="userSpaceOnUse" color-interpolation-filters="sRGB"><feFlood flood-opacity="0" result="BackgroundImageFix"/><feColorMatrix in="SourceAlpha" values="0 0 0 0 0 0 0 0 0 0 0 0 0 0 0 0 0 0 127 0"/><feOffset/><feGaussianBlur stdDeviation="10"/><feColorMatrix values="0 0 0 0 0.992157 0 0 0 0 0.713726 0 0 0 0 0.105882 0 0 0 1 0"/><feBlend in2="BackgroundImageFix" result="effect1_dropShadow"/><feBlend in="SourceGraphic" in2="effect1_dropShadow" result="shape"/></filter><filter id="filter15_d" x="838.005" y="49.89" width="46.2" height="46.201" filterUnits="userSpaceOnUse" color-interpolation-filters="sRGB"><feFlood flood-opacity="0" result="BackgroundImageFix"/><feColorMatrix in="SourceAlpha" values="0 0 0 0 0 0 0 0 0 0 0 0 0 0 0 0 0 0 127 0"/><feOffset/><feGaussianBlur stdDeviation="10"/><feColorMatrix values="0 0 0 0 0.992157 0 0 0 0 0.713726 0 0 0 0 0.105882 0 0 0 1 0"/><feBlend in2="BackgroundImageFix" result="effect1_dropShadow"/><feBlend in="SourceGraphic" in2="effect1_dropShadow" result="shape"/></filter><filter id="filter16_d" x="618.544" y="495.091" width="46.2" height="46.201" filterUnits="userSpaceOnUse" color-interpolation-filters="sRGB"><feFlood flood-opacity="0" result="BackgroundImageFix"/><feColorMatrix in="SourceAlpha" values="0 0 0 0 0 0 0 0 0 0 0 0 0 0 0 0 0 0 127 0"/><feOffset/><feGaussianBlur stdDeviation="10"/><feColorMatrix values="0 0 0 0 1 0 0 0 0 1 0 0 0 0 1 0 0 0 1 0"/><feBlend in2="BackgroundImageFix" result="effect1_dropShadow"/><feBlend in="SourceGraphic" in2="effect1_dropShadow" result="shape"/></filter><filter id="filter17_d" x="17.197" y="746.833" width="47.439" height="47.441" filterUnits="userSpaceOnUse" color-interpolation-filters="sRGB"><feFlood flood-opacity="0" result="BackgroundImageFix"/><feColorMatrix in="SourceAlpha" values="0 0 0 0 0 0 0 0 0 0 0 0 0 0 0 0 0 0 127 0"/><feOffset/><feGaussianBlur stdDeviation="10"/><feColorMatrix values="0 0 0 0 1 0 0 0 0 1 0 0 0 0 1 0 0 0 1 0"/><feBlend in2="BackgroundImageFix" result="effect1_dropShadow"/><feBlend in="SourceGraphic" in2="effect1_dropShadow" result="shape"/></filter><linearGradient id="paint0_linear" x1="453.181" y1="348.916" x2="446.682" y2="558.494" gradientUnits="userSpaceOnUse"><stop stop-color="#273358"/><stop offset="1" stop-color="#303A5B"/></linearGradient><linearGradient id="paint1_linear" x1="453.629" y1="383.733" x2="453.629" y2="453.257" gradientUnits="userSpaceOnUse"><stop stop-color="#272F53"/><stop offset="1" stop-color="#2A3355"/></linearGradient><linearGradient id="paint2_linear" x1="453.694" y1="451.619" x2="453.694" y2="514.444" gradientUnits="userSpaceOnUse"><stop stop-color="#2A3256"/><stop offset="1" stop-color="#202941"/></linearGradient><linearGradient id="paint3_linear" x1="499.677" y1="218.704" x2="479.435" y2="315.004" gradientUnits="userSpaceOnUse"><stop stop-color="#414D73"/><stop offset="1" stop-color="#343E61"/></linearGradient><linearGradient id="paint4_linear" x1="496.439" y1="251.362" x2="496.439" y2="351.784" gradientUnits="userSpaceOnUse"><stop stop-color="#272F53"/><stop offset="1" stop-color="#2B3554"/></linearGradient><linearGradient id="paint5_linear" x1="340.35" y1="479.127" x2="340.35" y2="537.413" gradientUnits="userSpaceOnUse"><stop stop-color="#3D4967"/><stop offset="1" stop-color="#333E62"/></linearGradient><linearGradient id="paint6_linear" x1="340.162" y1="497.729" x2="340.162" y2="517.674" gradientUnits="userSpaceOnUse"><stop stop-color="#1E2541"/><stop offset="1" stop-color="#293453"/></linearGradient><linearGradient id="paint7_linear" x1="705.499" y1="86.012" x2="705.499" y2="155.458" gradientUnits="userSpaceOnUse"><stop stop-color="#303A5B"/><stop offset="1" stop-color="#273356"/></linearGradient><linearGradient id="paint8_linear" x1="819.569" y1="241.026" x2="819.569" y2="340.235" gradientUnits="userSpaceOnUse"><stop stop-color="#3D4967"/><stop offset="1" stop-color="#333E62"/></linearGradient><linearGradient id="paint9_linear" x1="157.466" y1="661.424" x2="157.466" y2="777.995" gradientUnits="userSpaceOnUse"><stop stop-color="#3B476A"/><stop offset="1" stop-color="#293252"/></linearGradient><linearGradient id="paint10_linear" x1="611.267" y1="330.314" x2="611.267" y2="484.088" gradientUnits="userSpaceOnUse"><stop stop-color="#3D4967"/><stop offset="1" stop-color="#333E62"/></linearGradient><linearGradient id="paint11_linear" x1="596.704" y1="369.711" x2="625.284" y2="444.15" gradientUnits="userSpaceOnUse"><stop stop-color="#272F53"/><stop offset="1" stop-color="#2B3654"/></linearGradient><linearGradient id="paint12_linear" x1="142.489" y1="697.497" x2="172.472" y2="749.418" gradientUnits="userSpaceOnUse"><stop stop-color="#1E2440"/><stop offset="1" stop-color="#2A3554"/></linearGradient><linearGradient id="paint13_linear" x1="819.569" y1="259.689" x2="819.569" y2="321.571" gradientUnits="userSpaceOnUse"><stop stop-color="#1F2541"/><stop offset="1" stop-color="#293352"/></linearGradient><linearGradient id="paint14_linear" x1="707.804" y1="108.807" x2="707.804" y2="132.656" gradientUnits="userSpaceOnUse"><stop stop-color="#1F2541"/><stop offset="1" stop-color="#283251"/></linearGradient><linearGradient id="paint15_linear" x1="693.72" y1="118.255" x2="693.72" y2="123.215" gradientUnits="userSpaceOnUse"><stop stop-color="#1F2541"/><stop offset="1" stop-color="#283251"/></linearGradient></defs></svg>