<svg xmlns="http://www.w3.org/2000/svg" width="387.717" height="389.516"><defs><filter id="a" x="0" y="176.802" width="34.827" height="34.827" filterUnits="userSpaceOnUse"><feOffset/><feGaussianBlur stdDeviation="5" result="b"/><feFlood flood-color="#fdb61b"/><feComposite operator="in" in2="b"/><feComposite in="SourceGraphic"/></filter><filter id="c" x="51.893" y="275.158" width="34.827" height="34.827" filterUnits="userSpaceOnUse"><feOffset/><feGaussianBlur stdDeviation="5" result="d"/><feFlood flood-color="#fdb61b"/><feComposite operator="in" in2="d"/><feComposite in="SourceGraphic"/></filter><filter id="e" x="251.364" y="84.824" width="54.655" height="54.655" filterUnits="userSpaceOnUse"><feOffset/><feGaussianBlur stdDeviation="7.5" result="f"/><feFlood flood-color="#fdb61b"/><feComposite operator="in" in2="f"/><feComposite in="SourceGraphic"/></filter><filter id="g" x="30.515" y="86.031" width="52.241" height="52.241" filterUnits="userSpaceOnUse"><feOffset/><feGaussianBlur stdDeviation="7.5" result="h"/><feFlood flood-color="#fdb61b"/><feComposite operator="in" in2="h"/><feComposite in="SourceGraphic"/></filter><filter id="i" x="167.145" y="313.173" width="34.827" height="34.827" filterUnits="userSpaceOnUse"><feOffset/><feGaussianBlur stdDeviation="5" result="j"/><feFlood flood-color="#fdb61b"/><feComposite operator="in" in2="j"/><feComposite in="SourceGraphic"/></filter><filter id="k" x="12.672" y="174.388" width="34.827" height="34.827" filterUnits="userSpaceOnUse"><feOffset/><feGaussianBlur stdDeviation="5" result="l"/><feFlood flood-color="#fff"/><feComposite operator="in" in2="l"/><feComposite in="SourceGraphic"/></filter><filter id="m" x="68.789" y="33.19" width="34.827" height="34.827" filterUnits="userSpaceOnUse"><feOffset/><feGaussianBlur stdDeviation="5" result="n"/><feFlood flood-color="#fff"/><feComposite operator="in" in2="n"/><feComposite in="SourceGraphic"/></filter><filter id="o" x="152.06" y="13.277" width="34.827" height="34.827" filterUnits="userSpaceOnUse"><feOffset/><feGaussianBlur stdDeviation="5" result="p"/><feFlood flood-color="#fff"/><feComposite operator="in" in2="p"/><feComposite in="SourceGraphic"/></filter><filter id="q" x="224.469" y="293.864" width="34.827" height="34.827" filterUnits="userSpaceOnUse"><feOffset/><feGaussianBlur stdDeviation="5" result="r"/><feFlood flood-color="#fff"/><feComposite operator="in" in2="r"/><feComposite in="SourceGraphic"/></filter><filter id="s" x="93.27" y="245.935" width="54.655" height="54.655" filterUnits="userSpaceOnUse"><feOffset/><feGaussianBlur stdDeviation="7.5" result="t"/><feFlood flood-color="#fff"/><feComposite operator="in" in2="t"/><feComposite in="SourceGraphic"/></filter><filter id="u" x="29.912" y="177.75" width="54.655" height="54.655" filterUnits="userSpaceOnUse"><feOffset/><feGaussianBlur stdDeviation="7.5" result="v"/><feFlood flood-color="#fff"/><feComposite operator="in" in2="v"/><feComposite in="SourceGraphic"/></filter><style>.a{fill:none;stroke:rgba(255,255,255,.21);stroke-miterlimit:10;stroke-width:2px}.c{fill:#fdb51a}.d{fill:#fff}</style></defs><path class="a" d="M292.056 323.854l-.719.512c-.476.323-1.142.845-2.057 1.412s-2 1.285-3.264 2.094-2.676 1.733-4.29 2.626a152.022 152.022 0 01-24.357 11.657 158.989 158.989 0 01-26.007 7.275l-4.953.883c-1.479.237-2.779.368-3.843.515l-3.353.425m-62.941-7.319s-.538-.13-1.515-.475l-4.248-1.437c-1.845-.576-4.019-1.46-6.522-2.448-2.526-.932-5.271-2.233-8.29-3.59a154.97 154.97 0 01-19.7-11.075 160.761 160.761 0 01-20.335-16.036 156.7 156.7 0 01-29.865-38.026c-.851-1.42-1.569-2.836-2.251-4.182l-1.953-3.815c-1.154-2.429-2.088-4.582-2.893-6.336s-1.295-3.2-1.7-4.15l-.582-1.475m181.4 86.592l-3.348.771c-1.07.223-2.347.6-3.85.838l-5.034.9a152.048 152.048 0 01-27.386 1.817 150.534 150.534 0 01-27.252-3.205l-4.982-1.15c-1.484-.337-2.746-.757-3.8-1.038l-3.3-.937m169.491-65.392l-.656 1.124-1.985 3.094c-.855 1.332-1.871 2.968-3.182 4.743-1.285 1.792-2.681 3.855-4.4 5.957l-2.616 3.331-2.968 3.426-1.548 1.788-1.666 1.759q-1.689 1.772-3.451 3.612a147.731 147.731 0 01-33.994 25.329c-3.034 1.519-5.9 3.119-8.769 4.332-1.42.635-2.791 1.276-4.134 1.856l-3.939 1.552c-2.505 1.049-4.888 1.778-6.972 2.5-2.076.746-3.932 1.25-5.457 1.677l-3.536 1.006c-.818.225-1.262.309-1.262.309"/><path class="a" d="M347.921 276.873l-2.836 4.905-3.507 5.475c-1.354 2.114-3.06 4.378-4.832 6.908-.881 1.267-1.924 2.5-2.937 3.82-1.043 1.3-2.064 2.686-3.222 4.024-2.321 2.671-4.713 5.539-7.429 8.286-2.611 2.847-5.551 5.546-8.483 8.346-3.064 2.655-6.121 5.419-9.408 7.9-3.193 2.6-6.607 4.918-9.915 7.26-3.414 2.189-6.74 4.4-10.129 6.26-3.314 1.991-6.677 3.62-9.826 5.244-1.576.807-3.171 1.466-4.682 2.169-1.525.67-2.971 1.388-4.413 1.943-2.883 1.117-5.5 2.225-7.871 3.041l-6.164 2.085c-1.72.543-3.093.9-4.019 1.173l-1.426.4m-77.321-24.141l-1.214-.279-1.46-.335-1.948-.549c-1.455-.425-3.237-.9-5.257-1.512-1.995-.695-4.269-1.415-6.711-2.3a141.659 141.659 0 01-61.073-44.21c-1.606-2.047-3.111-3.9-4.295-5.655-1.2-1.738-2.344-3.193-3.129-4.492l-2.575-4.015m153.007 90.372l-3.85.69c-1.228.2-2.708.523-4.427.742l-5.774.736a173.04 173.04 0 01-31.193.583 170.491 170.491 0 01-30.81-5.148l-5.6-1.592c-1.673-.46-3.085-1.008-4.27-1.388l-3.706-1.258m111.936-32.399s-4.217 1.965-10.805 4.224a134.57 134.57 0 01-24.787 5.983 137.478 137.478 0 01-25.515 1.267c-1.75-.011-3.334-.226-4.75-.3-1.412-.115-2.647-.181-3.657-.291l-3.17-.406"/><path class="a" d="M71.298 314.351s5.028.509 9.856.78c4.94.2 9.7.155 9.7.155l.391.372c.25.247.629.6 1.13 1.021l4.109 3.56c.839.751 1.789 1.513 2.809 2.3l3.188 2.505c1.091.888 2.276 1.73 3.483 2.581l3.65 2.595c2.482 1.685 5.035 3.266 7.4 4.786l6.667 3.833 6.677 3.429.254.693.711 1.781c.6 1.477 1.422 3.456 2.293 5.453.445 1 .889 2 1.3 2.942l1.217 2.507 1.231 2.452 2.467.971c1.556.656 3.854 1.4 6.592 2.329a169.764 169.764 0 0041.459 8.409c2.879.213 5.277.428 6.96.431l2.643.069m7.202-49.204l-1.382.038c-.44.005-.974.042-1.586.033l-2.058-.06c-1.509-.066-3.271-.027-5.147-.173s-3.881-.278-5.878-.464l-5.843-.741-5.054-.9c-1.487-.224-2.692-.572-3.549-.754l-1.341-.31s-1.926-3.852-3.47-7.865c-.784-1.991-1.527-3.906-2.03-5.411-.487-1.5-.812-2.507-.812-2.507l-1.165-.4c-.749-.282-1.9-.567-3.273-1.161a108.91 108.91 0 01-11.337-5.03 112.78 112.78 0 01-30.18-22.405 115.321 115.321 0 01-12.646-15.694 110.183 110.183 0 01-8.554-15.327l-1.522-3.355q-.64-1.635-1.207-3.094c-.819-1.919-1.335-3.665-1.827-5.078l-.649-1.89c-.181-.553-.293-1.035-.407-1.419l-.333-1.184-1.642-.609c-1.026-.4-2.595-.961-4.333-1.73a123.426 123.426 0 01-12.892-6.446 178.807 178.807 0 01-3.485-2.044c-1.125-.7-2.2-1.41-3.268-2.112a175.645 175.645 0 01-5.815-4.027c-3.275-2.481-5.477-4.3-5.477-4.3m185.588 106.416l2.213-.743c1.381-.549 3.355-1.328 5.723-2.269a134.223 134.223 0 0016.579-8.614 119.961 119.961 0 0015.1-11.036l2.639-2.279c.784-.683 1.41-1.337 1.956-1.844l1.7-1.615s1.026.15 2.562.311c1.515.144 3.56.314 5.652.446s4.224.229 5.776.224l2.641.007 1-1.156c.319-.367.708-.813 1.152-1.328l1.4-1.793c2.1-2.59 4.742-6.179 7.2-9.886l1.791-2.794c.591-.923 1.177-1.826 1.677-2.741 1.026-1.815 2.034-3.481 2.819-4.952l2.534-4.948s.4-.095 1.054-.288 1.6-.483 2.737-.824 2.474-.777 3.916-1.256 3-1.009 4.491-1.6c3.008-1.165 6.1-2.437 8.387-3.467l3.749-1.795.7-2.076c.214-.664.516-1.457.784-2.391s.565-1.991.893-3.138.679-2.4 1.055-3.716l.973-4.2c.736-2.9 1.258-6.048 1.816-9.189.313-1.565.5-3.149.692-4.707s.392-3.089.58-4.572l.634-8.146.2-7.965m17.087 4.518l-.054 2.029-.065 2.329-.224 3.017c-.268 4.424-.909 10.309-1.859 16.15l-.775 4.345-.386 2.129-.463 2.061c-.639 2.7-1.165 5.239-1.756 7.379l-2.025 7.12s1.971 4.37 3.821 9.019c.965 2.329 1.712 4.646 2.346 6.435.6 1.8 1 2.993 1 2.993l-.391.985c-.258.642-.615 1.591-1.16 2.762-.53 1.176-1.174 2.6-1.914 4.243l-1.186 2.606-1.431 2.831c-1.026 1.959-2.061 4.122-3.308 6.326l-3.983 6.9-4.6 7.169c-1.655 2.38-3.371 4.774-5.084 7.169a184.326 184.326 0 01-21.515 24.126c-6.43 6.052-11.086 9.671-11.086 9.671"/><path class="a" d="M331.118 201.966l-.35 4.559c-.06 1.373-.307 2.953-.517 4.653s-.408 3.519-.777 5.31c-.348 1.791-.588 3.606-.985 5.27l-1.051 4.557c-.288 1.338-.669 2.417-.868 3.19l-.343 1.207s-1.482.66-3.672 1.569a171.09 171.09 0 01-8.221 2.94c-2.984.958-6.034 1.74-8.231 2.293-1.107.273-2.015.49-2.692.62l-1.037.209-.638 1.4c-.427.88-.912 2.2-1.726 3.664s-1.585 3.272-2.692 5.059l-1.6 2.809c-.576.94-1.207 1.866-1.8 2.814-1.15 1.925-2.534 3.7-3.724 5.426-1.227 1.706-2.507 3.2-3.514 4.546l-3.657 4.255M69.39 291.181l-2.7-3.794c-.835-1.119-1.665-2.525-2.622-3.983-.922-1.481-1.991-3.01-2.9-4.635-1.866-3.223-3.741-6.441-4.959-8.959l-1.537-3.005c-.373-.724-.574-1.146-.574-1.146s-1.735-.675-4.376-1.779-6.221-2.648-9.665-4.422c-1.744-.876-3.5-1.784-5.151-2.662s-3.114-1.76-4.417-2.515c-2.577-1.522-4.31-2.6-4.31-2.6s-.3-.853-.774-2.367l-1.8-6.314-.572-2.04-.519-2.206-1.1-4.767c-.406-1.649-.714-3.374-1.026-5.129l-.943-5.317c-.52-3.578-.97-7.169-1.343-10.536-.262-3.375-.524-6.528-.678-9.232l-.226-9.013m274.084 154.667l-2.339 1.343c-1.471.889-3.663 1.991-6.284 3.334a181.859 181.859 0 01-19.792 8.609c-3.727 1.24-7.414 2.611-10.979 3.548l-5.114 1.444-4.63 1.086-3.919.9c-1.172.241-2.2.408-3.046.565l-2.655.476-2.312 2.81c-1.408 1.679-3.353 3.8-5.37 5.974s-4.115 4.334-5.732 5.853l-2.726 2.584-2.545.188c-1.619.155-3.932.2-6.71.273l-4.484.1c-1.591.024-3.269-.052-5.005-.082l-5.352-.148c-1.821-.107-3.672-.258-5.522-.394-1.849-.158-3.7-.251-5.518-.477l-5.329-.67c-3.464-.388-6.66-1.026-9.408-1.5l-3.737-.694-2.865-.651-2.493-.574M111.859 65.663l.72-.512c.476-.323 1.14-.845 2.057-1.412l3.263-2.094c1.258-.813 2.676-1.733 4.29-2.625a151.97 151.97 0 0124.357-11.659 159.1 159.1 0 0126.007-7.275l4.953-.883c1.479-.237 2.779-.368 3.844-.514l3.352-.425m62.943 7.32s.538.129 1.513.474l4.248 1.437c1.845.577 4.019 1.46 6.522 2.449 2.527.93 5.271 2.233 8.292 3.589a154.966 154.966 0 0119.7 11.074 160.789 160.789 0 0120.335 16.036 156.743 156.743 0 0129.864 38.029c.851 1.42 1.569 2.836 2.251 4.182s1.34 2.617 1.953 3.815c1.154 2.429 2.088 4.582 2.893 6.336s1.295 3.2 1.7 4.15c.379.965.582 1.475.582 1.475M166.101 52.038l3.346-.771c1.07-.223 2.347-.6 3.852-.838l5.033-.9a152.055 152.055 0 0127.386-1.817 150.452 150.452 0 0127.253 3.207l4.981 1.146c1.484.337 2.747.758 3.8 1.038l3.3.938M75.559 119.432l.656-1.124 1.985-3.094c.852-1.335 1.871-2.968 3.182-4.742 1.285-1.793 2.682-3.856 4.4-5.958l2.615-3.331 2.968-3.425 1.547-1.788 1.666-1.759 3.454-3.614a147.769 147.769 0 0133.994-25.328c3.034-1.518 5.9-3.119 8.769-4.332 1.42-.634 2.79-1.276 4.133-1.856l3.94-1.552c2.505-1.049 4.888-1.778 6.971-2.5 2.076-.746 3.934-1.25 5.457-1.678l3.535-1c.818-.226 1.264-.31 1.264-.31"/><path class="a" d="M55.996 112.645l2.836-4.906 3.507-5.475c1.354-2.114 3.06-4.378 4.833-6.908.881-1.267 1.924-2.5 2.936-3.818 1.043-1.3 2.064-2.687 3.223-4.025 2.32-2.671 4.712-5.539 7.429-8.286 2.611-2.847 5.551-5.546 8.483-8.346 3.062-2.655 6.12-5.417 9.407-7.9 3.193-2.6 6.608-4.918 9.916-7.26 3.414-2.187 6.74-4.4 10.128-6.26 3.315-1.991 6.678-3.62 9.826-5.244 1.577-.807 3.171-1.466 4.682-2.168 1.526-.67 2.972-1.388 4.414-1.943 2.883-1.118 5.494-2.227 7.87-3.042l6.165-2.084c1.719-.543 3.092-.9 4.019-1.173l1.426-.4m77.319 24.139l1.215.279 1.458.335 1.948.549c1.456.425 3.237.9 5.257 1.513 2 .694 4.269 1.414 6.712 2.3a141.673 141.673 0 0161.072 44.208c1.607 2.047 3.111 3.9 4.295 5.655 1.2 1.738 2.342 3.193 3.129 4.492l2.574 4.015M169.071 30.521l3.849-.69c1.228-.2 2.708-.523 4.427-.742l5.774-.734a173.129 173.129 0 0131.193-.584 170.418 170.418 0 0130.811 5.15l5.6 1.591c1.674.46 3.086 1.01 4.272 1.388l3.7 1.257M146.763 69.555s4.217-1.965 10.807-4.224a134.541 134.541 0 0124.786-5.983 137.585 137.585 0 0125.516-1.267c1.75.011 3.334.227 4.749.306 1.412.115 2.647.181 3.658.29l3.169.407"/><path class="a" d="M332.619 75.17s-5.027-.509-9.855-.78c-4.94-.2-9.7-.154-9.7-.154l-.39-.372c-.251-.248-.629-.6-1.13-1.021l-4.11-3.56a49.293 49.293 0 00-2.808-2.3l-3.189-2.507c-1.091-.888-2.276-1.729-3.484-2.581l-3.649-2.595c-2.482-1.685-5.036-3.264-7.4-4.786-2.438-1.4-4.716-2.712-6.667-3.835l-6.677-3.427-.254-.695-.711-1.781c-.6-1.475-1.42-3.455-2.293-5.452-.444-1-.888-2-1.3-2.943l-1.217-2.505-1.23-2.453-2.469-.97c-1.556-.656-3.853-1.4-6.592-2.33a169.766 169.766 0 00-41.457-8.409c-2.88-.212-5.279-.428-6.961-.43l-2.643-.07m-7.203 49.202l1.383-.037c.439-.005.974-.042 1.586-.031l2.057.06c1.509.065 3.271.026 5.148.173s3.881.278 5.878.463l5.843.741 5.054.9c1.487.224 2.692.573 3.549.754l1.342.31s1.926 3.852 3.47 7.866c.784 1.991 1.526 3.905 2.031 5.41l.811 2.507 1.164.4c.749.282 1.9.567 3.274 1.161a109 109 0 0111.338 5.03 112.808 112.808 0 0130.178 22.405 115.318 115.318 0 0112.648 15.692 110.137 110.137 0 018.554 15.327l1.523 3.355 1.207 3.094c.819 1.921 1.335 3.666 1.827 5.08.241.708.461 1.34.649 1.889s.294 1.035.407 1.42l.333 1.184 1.642.608c1.026.4 2.595.961 4.334 1.73a123.432 123.432 0 0112.892 6.444c1.163.664 2.332 1.35 3.485 2.043 1.125.7 2.2 1.411 3.268 2.112a181.88 181.88 0 015.815 4.028c3.275 2.479 5.477 4.3 5.477 4.3M161.805 78.419l-2.213.743-5.723 2.269a134.459 134.459 0 00-16.577 8.614 120.042 120.042 0 00-15.108 11.037c-.965.836-1.852 1.6-2.637 2.279s-1.405 1.337-1.955 1.842l-1.7 1.615s-1.026-.148-2.561-.311c-1.515-.144-3.56-.314-5.652-.446s-4.224-.229-5.776-.224l-2.642-.005-1 1.156-1.151 1.327-1.406 1.791c-2.1 2.592-4.741 6.18-7.2 9.888-.6.936-1.2 1.871-1.79 2.794s-1.178 1.826-1.678 2.741c-1.026 1.815-2.033 3.48-2.819 4.952l-2.534 4.948s-.4.095-1.054.288l-2.737.824c-1.139.352-2.474.777-3.916 1.256s-3 1.01-4.489 1.6c-3.008 1.165-6.1 2.437-8.387 3.467l-3.749 1.795-.7 2.078c-.213.664-.515 1.457-.784 2.39s-.565 1.991-.893 3.138-.679 2.4-1.054 3.716l-.974 4.2c-.736 2.9-1.258 6.049-1.816 9.189-.313 1.565-.494 3.149-.692 4.707l-.579 4.572c-.233 2.98-.448 5.763-.634 8.146l-.2 7.965m-17.083-4.52l.053-2.028.066-2.329.223-3.017c.268-4.424.909-10.309 1.859-16.148.261-1.457.52-2.913.775-4.348q.2-1.075.386-2.129.234-1.045.464-2.061c.638-2.7 1.163-5.239 1.756-7.379l2.024-7.12s-1.97-4.369-3.82-9.019c-.965-2.33-1.714-4.646-2.346-6.437l-1-2.993.391-.985c.258-.641.615-1.591 1.159-2.761l1.914-4.243 1.187-2.606 1.426-2.832c1.026-1.959 2.059-4.122 3.308-6.326l3.983-6.9 4.595-7.168c1.655-2.38 3.371-4.774 5.084-7.169a184.33 184.33 0 0121.53-24.126c6.43-6.052 11.085-9.67 11.085-9.67"/><path class="a" d="M72.799 187.552l.349-4.561c.06-1.372.308-2.953.518-4.653s.409-3.519.775-5.31c.348-1.791.588-3.606.985-5.27s.744-3.223 1.052-4.556c.288-1.339.669-2.418.867-3.19l.343-1.207s1.482-.664 3.672-1.569c2.272-.883 5.28-1.976 8.222-2.94 2.984-.958 6.034-1.741 8.231-2.293a58.956 58.956 0 012.691-.622l1.038-.209.637-1.4c.427-.88.912-2.194 1.725-3.663s1.585-3.274 2.692-5.06l1.605-2.808c.576-.94 1.207-1.871 1.8-2.816 1.15-1.924 2.534-3.7 3.724-5.426 1.227-1.706 2.507-3.2 3.514-4.546l3.657-4.255m213.631-22.865l2.7 3.794c.836 1.12 1.665 2.525 2.622 3.983.923 1.481 1.991 3.01 2.9 4.635 1.865 3.223 3.741 6.442 4.958 8.959l1.537 3c.374.724.574 1.146.574 1.146s1.735.675 4.376 1.779 6.221 2.648 9.665 4.424c1.744.874 3.5 1.782 5.151 2.662s3.115 1.76 4.417 2.515c2.577 1.522 4.31 2.6 4.31 2.6s.3.854.774 2.367l1.8 6.314.571 2.04.52 2.206 1.1 4.767c.406 1.649.714 3.375 1.026 5.129l.944 5.318c.52 3.578.97 7.169 1.342 10.536.262 3.375.524 6.527.678 9.232l.226 9.013M112.635 40.089l2.341-1.343c1.47-.889 3.662-1.991 6.284-3.334a182.052 182.052 0 0119.792-8.609c3.728-1.24 7.415-2.611 10.978-3.548l5.11-1.443 4.631-1.086 3.919-.9c1.172-.241 2.2-.407 3.046-.565l2.655-.475 2.312-2.81c1.409-1.681 3.353-3.8 5.37-5.974s4.115-4.336 5.732-5.853l2.727-2.583 2.544-.188c1.62-.155 3.934-.2 6.71-.273l4.485-.1c1.591-.024 3.269.052 5 .082l5.352.148c1.821.107 3.673.258 5.523.394 1.848.158 3.7.251 5.517.477s3.6.453 5.331.67c3.463.388 6.659 1.026 9.408 1.5l3.741.689c1.106.252 2.07.471 2.864.65l2.495.575"/><path d="M336.062 75.373a1.741 1.741 0 11-1.741-1.741 1.741 1.741 0 011.741 1.741z" stroke-width=".517" fill="none" stroke="rgba(255,255,255,.21)" stroke-miterlimit="10"/><g transform="translate(0 -.001)" filter="url(#a)"><rect class="c" width="4.827" height="4.827" rx="2" transform="translate(15 191.8)"/></g><g transform="translate(0 -.001)" filter="url(#c)"><rect class="c" width="4.827" height="4.827" rx="2" transform="translate(66.89 290.16)"/></g><g transform="translate(0 -.001)" filter="url(#e)"><rect class="c" width="9.655" height="9.655" rx="2" transform="translate(273.86 107.32)"/></g><g transform="translate(0 -.001)" filter="url(#g)"><rect class="c" width="7.241" height="7.241" rx="2" transform="translate(53.01 108.53)"/></g><g transform="translate(0 -.001)" filter="url(#i)"><rect class="c" width="4.827" height="4.827" rx="2" transform="translate(182.15 328.17)"/></g><g transform="translate(0 -.001)" filter="url(#k)"><rect class="d" width="4.827" height="4.827" rx="2" transform="translate(27.67 189.39)"/></g><g transform="translate(0 -.001)" filter="url(#m)"><rect class="d" width="4.827" height="4.827" rx="2" transform="translate(83.79 48.19)"/></g><g transform="translate(0 -.001)" filter="url(#o)"><rect class="d" width="4.827" height="4.827" rx="2" transform="translate(167.06 28.28)"/></g><g transform="translate(0 -.001)" filter="url(#q)"><rect class="d" width="4.827" height="4.827" rx="2" transform="translate(239.47 308.86)"/></g><g transform="translate(0 -.001)" filter="url(#s)"><rect class="d" width="9.655" height="9.655" rx="2" transform="translate(115.77 268.44)"/></g><g transform="translate(0 -.001)" filter="url(#u)"><rect class="d" width="9.655" height="9.655" rx="2" transform="translate(52.41 200.25)"/></g></svg>